<?xml version="1.0" encoding="UTF-8"?>
<svg version="1.1" xmlns="http://www.w3.org/2000/svg" width="500" height="500">
<path d="M0 0 C165 0 330 0 500 0 C500 165 500 330 500 500 C335 500 170 500 0 500 C0 335 0 170 0 0 Z " fill="#FEFEFE" transform="translate(0,0)"/>
<path d="M0 0 C1.051875 0.53625 2.10375 1.0725 3.1875 1.625 C5.86768805 3.33892775 5.86768805 3.33892775 8.3125 2.25 C9.94190849 1.10719528 9.94190849 1.10719528 11 0 C26.76741827 -1.25367852 40.29009103 3.56721117 52.75 13.1875 C63.79090908 22.66931817 70.39825492 35.06574872 74 49 C74.20625 49.70511719 74.4125 50.41023438 74.625 51.13671875 C78.72363917 66.5350784 75.22248177 80.30701398 68 94 C65.14239675 98.84473659 61.41788993 102.59805455 57.39599609 106.47363281 C48.62757386 114.94885545 38.82233071 125.16103024 38 138 C38 139.0725 38 140.145 38 141.25 C38 144 38 144 36.875 146.625 C36.58625 147.40875 36.2975 148.1925 36 149 C36.309375 149.598125 36.61875 150.19625 36.9375 150.8125 C38.37286648 153.76766627 37.82188481 155.82784856 37.2890625 159 C36.86340357 161.94509963 36.64886521 164.29773043 38 167 C38.41314256 171.6478538 37.78987316 174.24440152 35 178 C32.04335481 179.4783226 29.25770263 179.06032783 26 179 C25.95875 179.7425 25.9175 180.485 25.875 181.25 C24.63821998 185.13702293 22.47956741 186.05144225 19 188 C12.96612005 190.01129332 5.36514151 190.25005257 -0.62890625 188.0234375 C-3.56024189 186.26355644 -5.52922596 185.01783953 -6.98828125 181.86328125 C-7.32214844 181.24839844 -7.65601563 180.63351562 -8 180 C-10.3260857 179.61936779 -12.66055264 179.28730055 -15 179 C-17.10706014 177.42462794 -17.88279659 176.42712385 -18.58203125 173.87890625 C-18.65808594 173.11449219 -18.73414063 172.35007812 -18.8125 171.5625 C-18.90144531 170.80066406 -18.99039063 170.03882813 -19.08203125 169.25390625 C-18.98847266 166.68327274 -18.17589902 165.25100669 -17 163 C-17.63040043 161.64914193 -18.30251417 160.31747324 -19 159 C-19.28643593 155.63437785 -19.21152616 153.49356104 -17.875 150.375 C-16.70388482 148.05198161 -16.70388482 148.05198161 -17.875 146.0625 C-18.24625 145.381875 -18.6175 144.70125 -19 144 C-19.20974831 140.57411097 -19.0892574 138.2677722 -18 135 C-19.28062485 133.2925002 -20.61767557 131.62626404 -22 130 C-23.1577506 126.52674819 -23.06866652 123.63932552 -23 120 C-23.763125 119.9175 -24.52625 119.835 -25.3125 119.75 C-28.54715191 118.84730645 -29.35099265 117.86406539 -31 115 C-31 114.34 -31 113.68 -31 113 C-32.0725 112.79375 -33.145 112.5875 -34.25 112.375 C-38.75423579 110.72344688 -39.78988782 109.16521141 -42 105 C-42.33 104.01 -42.66 103.02 -43 102 C-44.093125 101.401875 -45.18625 100.80375 -46.3125 100.1875 C-50.156118 98.08379138 -52.09104256 96.04698977 -54 92 C-54.0625 89.7890625 -54.0625 89.7890625 -53.9375 87.4375 C-53.72717784 83.49949483 -53.72717784 83.49949483 -56.375 80.3125 C-57.674375 79.1678125 -57.674375 79.1678125 -59 78 C-61.00997936 73.59718808 -61.49740688 69.80826653 -61 65 C-60.11722151 62.870946 -59.11096197 60.89778612 -57.97265625 58.89453125 C-56.19398034 55.43004203 -55.99740448 53.05364078 -56.1875 49.125 C-56.24465635 44.74845636 -54.8729519 42.35177722 -52 39 C-49.75 37.625 -49.75 37.625 -48 37 C-48.1546875 35.7625 -48.1546875 35.7625 -48.3125 34.5 C-47.78354502 28.57570426 -44.64660661 24.4934339 -40.3125 20.5625 C-36.32774657 17.87009903 -33.81101834 17.91090707 -29 18 C-28.95875 17.278125 -28.9175 16.55625 -28.875 15.8125 C-27.67768921 11.96400104 -25.35713729 10.02327471 -22 8 C-19.67126625 7.31744011 -17.33817209 6.64949225 -15 6 C-12.81222534 4.0624994 -12.81222534 4.0624994 -11 2 C-7.4405661 -0.454782 -4.24107076 -0.36560955 0 0 Z " fill="#0E1A48" transform="translate(242,123)"/>
<path d="M0 0 C1.98 0.99 3.96 1.98 6 3 C6 15.54 6 28.08 6 41 C4.68 40.67 3.36 40.34 2 40 C0.79727181 37.59454362 0.89928528 36.05003047 0.9375 33.375 C0.94652344 32.55773437 0.95554688 31.74046875 0.96484375 30.8984375 C0.97644531 30.27195313 0.98804688 29.64546875 1 29 C0.01 29.33 -0.98 29.66 -2 30 C-2.421863 36.33864123 -2.421863 36.33864123 0 42 C0.99 42.495 0.99 42.495 2 43 C1.835 43.515625 1.67 44.03125 1.5 44.5625 C0.84951 47.73363876 0.9379266 50.77218334 1 54 C1.99 54.33 2.98 54.66 4 55 C4 52.36 4 49.72 4 47 C4.66 46.67 5.32 46.34 6 46 C6 50.95 6 55.9 6 61 C3.463125 61.12375 3.463125 61.12375 0.875 61.25 C-4.16525106 61.7275654 -7.11965045 62.57085388 -11 66 C-11.96460397 67.24516745 -12.92264896 68.49543622 -13.875 69.75 C-15.5566185 71.81662063 -16.41581845 72.84942607 -19.015625 73.51953125 C-22.86927029 73.59803143 -25.6796324 72.82251288 -29 71 C-29.47622699 62.74539877 -29.47622699 62.74539877 -27.5625 59.75 C-27.046875 59.1725 -26.53125 58.595 -26 58 C-25.28566879 55.35065178 -25.28566879 55.35065178 -25 53 C-26.485 53.495 -26.485 53.495 -28 54 C-29.21869929 56.50447516 -29.21869929 56.50447516 -30 59 C-30.70125 58.71125 -31.4025 58.4225 -32.125 58.125 C-35.05452503 56.97866412 -38.00921653 55.97374346 -41 55 C-39.73532205 58.79403384 -38.38302487 59.06684293 -35 61 C-32.68224428 62.75829744 -32.09384386 63.49056188 -31.5625 66.375 C-32.40002185 71.40013109 -36.45470952 74.58132703 -40 78 C-36.31245243 77.50168276 -34.39509338 76.89932357 -32 74 C-30.515 74.495 -30.515 74.495 -29 75 C-24.04274168 76.39485609 -19.35472384 76.91891662 -14.4375 75 C-11.44073108 72.54111268 -9.08348313 69.75018505 -6.6484375 66.7421875 C-4.08069773 64.02841514 -2.05431582 64.00187296 1.625 63.875 C5 64 5 64 6 65 C6.07179964 66.51928038 6.08392007 68.04167482 6.0625 69.5625 C6.05347656 70.38878906 6.04445312 71.21507812 6.03515625 72.06640625 C6.02355469 72.70449219 6.01195312 73.34257812 6 74 C5.38511719 73.97679687 4.77023438 73.95359375 4.13671875 73.9296875 C3.32847656 73.91164063 2.52023438 73.89359375 1.6875 73.875 C0.88699219 73.85179687 0.08648437 73.82859375 -0.73828125 73.8046875 C-3.28388576 73.84182678 -3.28388576 73.84182678 -6 76 C-6.495 77.485 -6.495 77.485 -7 79 C-5.906875 78.505 -4.81375 78.01 -3.6875 77.5 C0 76 0 76 3 76 C4.36623674 78.73247348 4.128426 80.98198902 4 84 C3 85 3 85 -0.0625 85.0625 C-1.031875 85.041875 -2.00125 85.02125 -3 85 C-2.01 86.485 -2.01 86.485 -1 88 C2.72301503 88.47730962 3.79191085 88.1387261 7 86 C7 89.63 7 93.26 7 97 C3.28956952 97.34515632 1.53315375 97.37710875 -1.5625 95.1875 C-2.366875 94.465625 -3.17125 93.74375 -4 93 C-4.86625 92.484375 -5.7325 91.96875 -6.625 91.4375 C-8.80077344 90.12058449 -10.38571505 88.95413441 -12 87 C-12 86.34 -12 85.68 -12 85 C-12.99 85 -13.98 85 -15 85 C-13.5402419 89.97672394 -13.5402419 89.97672394 -9.90234375 93.47265625 C-8.33881218 94.30399743 -6.75681293 95.10177521 -5.15625 95.859375 C-3 97 -3 97 -1.59375 98.578125 C0.40536187 100.61638644 0.40536187 100.61638644 6 101 C6 105.29 6 109.58 6 114 C4.5975 114.226875 3.195 114.45375 1.75 114.6875 C-1.51979999 115.43297327 -2.88596122 115.90306704 -5.5 118.125 C-7.45110848 121.86462459 -7.71540303 124.80219475 -8 129 C-14.26573427 129.60247445 -14.26573427 129.60247445 -17.4375 127 C-19.51685114 123.00764582 -19.30231166 120.45909693 -19 116 C-18.34 116 -17.68 116 -17 116 C-17.33 115.01 -17.66 114.02 -18 113 C-19.093125 112.9175 -20.18625 112.835 -21.3125 112.75 C-25 112 -25 112 -26.9375 109.9375 C-27.288125 109.298125 -27.63875 108.65875 -28 108 C-27.484375 107.649375 -26.96875 107.29875 -26.4375 106.9375 C-24.65242263 104.93361488 -24.65242263 104.93361488 -25 101.5 C-25.66317075 97.85107137 -25.66317075 97.85107137 -28.5625 96.0625 C-29.366875 95.711875 -30.17125 95.36125 -31 95 C-30.484375 95.721875 -29.96875 96.44375 -29.4375 97.1875 C-27.78557018 100.4195366 -27.93648325 101.61608307 -29 105 C-32.375 104.6875 -32.375 104.6875 -36 104 C-38.50031654 100.24952518 -38.53603554 98.44143734 -38 94 C-36.3125 91.0625 -36.3125 91.0625 -33 89 C-28.63470401 88.58778077 -24.37057969 88.71204087 -20 89 C-20 88.01 -20 87.02 -20 86 C-29.43188086 84.95279402 -29.43188086 84.95279402 -37.8125 88.3125 C-40.15007563 90.86085624 -40.15007563 90.86085624 -41 94 C-45.40287778 92.65467623 -47.54758631 90.90569587 -50 87 C-50.25 84.1875 -50.25 84.1875 -50 82 C-47.03 81.505 -47.03 81.505 -44 81 C-44 80.34 -44 79.68 -44 79 C-44.99 78.67 -45.98 78.34 -47 78 C-46.67 77.154375 -46.34 76.30875 -46 75.4375 C-44.93894046 71.79010784 -44.84890987 68.77725336 -45 65 C-46.32 65 -47.64 65 -49 65 C-48.7525 66.0725 -48.505 67.145 -48.25 68.25 C-48 72 -48 72 -49.9375 74.4375 C-50.618125 74.953125 -51.29875 75.46875 -52 76 C-56.24044829 70.93881978 -57.56592208 67.67788055 -57 61 C-55 57.5625 -55 57.5625 -53 55 C-48.05 56.485 -48.05 56.485 -43 58 C-43 57.01 -43 56.02 -43 55 C-43.928125 54.7525 -44.85625 54.505 -45.8125 54.25 C-49.27233179 52.89320322 -50.39189552 52.30554809 -52 49 C-52.42725391 45.08350586 -52.29948529 42.67027659 -50.6875 39.0625 C-50.130625 38.381875 -49.57375 37.70125 -49 37 C-46 37 -46 37 -44.53515625 38.4609375 C-44.04917969 39.09257812 -43.56320313 39.72421875 -43.0625 40.375 C-40.93885078 43.12724939 -39.28182777 44.75772621 -36 46 C-33.91044059 46.27726924 -33.91044059 46.27726924 -31.75 46.1875 C-30.57630859 46.16816406 -30.57630859 46.16816406 -29.37890625 46.1484375 C-27.10511443 46.00655886 -24.93232981 45.69013492 -22.6875 45.3125 C-19 45 -19 45 -16.78515625 46.09375 C-15 48 -15 48 -14.609375 50.91796875 C-14.65578125 51.99691406 -14.7021875 53.07585937 -14.75 54.1875 C-14.78609375 55.27417969 -14.8221875 56.36085937 -14.859375 57.48046875 C-14.90578125 58.31191406 -14.9521875 59.14335937 -15 60 C-14.34 60 -13.68 60 -13 60 C-12.84144531 59.43410156 -12.68289062 58.86820313 -12.51953125 58.28515625 C-11.81418295 56.06779058 -11.10846848 54.04806871 -10 52 C-7.3125 51 -7.3125 51 -5 51 C-5.33 50.34 -5.66 49.68 -6 49 C-9.02934491 48.34227572 -9.02934491 48.34227572 -12 48 C-12.495 46.02 -12.495 46.02 -13 44 C-13.66 44 -14.32 44 -15 44 C-14.45276317 40.62537285 -13.9451 38.91765 -12 36 C-11.34 36 -10.68 36 -10 36 C-10.33 35.01 -10.66 34.02 -11 33 C-12.94906855 33.59533047 -12.94906855 33.59533047 -15 35 C-15.391875 35.99 -15.78375 36.98 -16.1875 38 C-18 41 -18 41 -19.90625 41.8359375 C-22.27654605 42.3960417 -24.57782281 42.74834523 -27 43 C-27.7115625 43.0825 -28.423125 43.165 -29.15625 43.25 C-34.29246769 43.56607493 -37.18592035 42.37058202 -41 39 C-43.64201025 34.94891762 -44.70236884 31.8162435 -44 27 C-41.93504958 23.23884031 -39.91274408 19.90349712 -36 18 C-31.25636584 17.5185033 -26.62367048 17.80679471 -22 19 C-22 18.34 -22 17.68 -22 17 C-23.32 16.34 -24.64 15.68 -26 15 C-24.74155722 11.11980141 -23.57583797 9.0588158 -20 7 C-19.01 7 -18.02 7 -17 7 C-16.5875 8.11375 -16.175 9.2275 -15.75 10.375 C-14.64453484 12.99320695 -14.25119213 13.83493089 -11.8125 15.4375 C-11.214375 15.623125 -10.61625 15.80875 -10 16 C-11.08784968 12.75016865 -11.08784968 12.75016865 -13 10 C-13.4375 7.75 -13.4375 7.75 -13 5 C-8.88779462 0.48660385 -6.27147306 -0.89592472 0 0 Z " fill="#E33C36" transform="translate(242,127)"/>
<path d="M0 0 C14.36850549 0.27772289 25.55510599 6.27348467 35.9375 16.1875 C48.36997755 29.3844341 54.15108456 46.3551577 53.87890625 64.30078125 C52.72813813 81.08384748 44.05745858 93.03885812 32.40625 104.34179688 C24.89670402 111.70478109 19.73955282 119.21271767 16.5 129.3125 C12.21 129.6425 7.92 129.9725 3.5 130.3125 C3.59770642 126.08026923 3.70089753 121.84884964 3.81738281 117.6171875 C3.85531893 116.18204487 3.89022862 114.74681854 3.921875 113.31152344 C4.10416779 105.14252792 4.4831271 97.27550064 6.5 89.3125 C6.71140625 88.384375 6.9228125 87.45625 7.140625 86.5 C8.87082752 80.2890166 11.38817739 74.34519955 15.5 69.3125 C19.42823101 69.3125 20.56618894 70.83004449 23.5 73.3125 C26.34083641 74.73291821 28.35477278 74.62702272 31.5 74.3125 C34.08333333 72.89583333 34.08333333 72.89583333 35.5 70.3125 C35.82548832 66.75586774 35.82548832 66.75586774 34.5 63.3125 C31.47574813 60.56957389 29.49504302 59.434342 25.4375 58.9375 C22.48075466 59.31495685 20.18872481 60.04721774 17.5 61.3125 C17.005 58.8375 17.005 58.8375 16.5 56.3125 C17.593125 55.879375 18.68625 55.44625 19.8125 55 C23.72679029 53.37360847 23.72679029 53.37360847 26.5 50.3125 C27.03723414 47.63164844 27.27575623 45.04827399 27.5 42.3125 C21.7117042 41.18863476 21.7117042 41.18863476 16.0625 42.25 C13.69139627 45.37985693 13.25521534 48.47348868 12.5 52.3125 C10.85 51.9825 9.2 51.6525 7.5 51.3125 C7.665 50.796875 7.83 50.28125 8 49.75 C8.88504441 45.43540849 8.89291284 41.49123852 7.5 37.3125 C6.04257537 37.23153197 4.58387193 37.17332226 3.125 37.125 C1.90683594 37.07279297 1.90683594 37.07279297 0.6640625 37.01953125 C-0.05007813 37.11621094 -0.76421875 37.21289062 -1.5 37.3125 C-4.02460333 41.09940499 -3.57145751 42.81097671 -2.9921875 47.1484375 C-2.3959763 49.76987405 -1.39795449 51.41454551 0.5 53.3125 C-0.6196986 54.31843243 -1.7459412 55.3170849 -2.875 56.3125 C-3.50148438 56.869375 -4.12796875 57.42625 -4.7734375 58 C-6.5 59.3125 -6.5 59.3125 -8.5 59.3125 C-8.54629419 51.9151924 -8.58185426 44.51791593 -8.60362434 37.12049294 C-8.6140717 33.68574541 -8.62824805 30.25109683 -8.65087891 26.81640625 C-8.67672063 22.86980362 -8.68646493 18.92324137 -8.6953125 14.9765625 C-8.70563507 13.74007965 -8.71595764 12.5035968 -8.72659302 11.22964478 C-8.72674408 10.08861298 -8.72689514 8.94758118 -8.72705078 7.77197266 C-8.731492 6.763815 -8.73593323 5.75565735 -8.74050903 4.71694946 C-8.20472929 -0.63942034 -4.47575138 0.01459484 0 0 Z " fill="#F79110" transform="translate(260.5,126.6875)"/>
<path d="M0 0 C3.33537489 1.11179163 4.63707344 2.47411298 7 5 C7.99 4.67 8.98 4.34 10 4 C13.13671875 5.21484375 13.13671875 5.21484375 16.6875 6.9375 C17.86699219 7.50339844 19.04648438 8.06929687 20.26171875 8.65234375 C21.16535156 9.09707031 22.06898438 9.54179687 23 10 C22.67 10.66 22.34 11.32 22 12 C21.29875 11.71125 20.5975 11.4225 19.875 11.125 C16.94547497 9.97866412 13.99078347 8.97374346 11 8 C12.26467795 11.79403384 13.61697513 12.06684293 17 14 C19.31775572 15.75829744 19.90615614 16.49056188 20.4375 19.375 C19.59997815 24.40013109 15.54529048 27.58132703 12 31 C15.68754757 30.50168276 17.60490662 29.89932357 20 27 C20.99 27.33 21.98 27.66 23 28 C27.95725832 29.39485609 32.64527616 29.91891662 37.5625 28 C40.55926892 25.54111268 42.91651687 22.75018505 45.3515625 19.7421875 C47.91930227 17.02841514 49.94568418 17.00187296 53.625 16.875 C57 17 57 17 58 18 C58.07179964 19.51928038 58.08392007 21.04167482 58.0625 22.5625 C58.05347656 23.38878906 58.04445312 24.21507812 58.03515625 25.06640625 C58.02355469 25.70449219 58.01195312 26.34257812 58 27 C57.38511719 26.97679687 56.77023438 26.95359375 56.13671875 26.9296875 C55.32847656 26.91164062 54.52023438 26.89359375 53.6875 26.875 C52.88699219 26.85179687 52.08648437 26.82859375 51.26171875 26.8046875 C48.71611424 26.84182678 48.71611424 26.84182678 46 29 C45.505 30.485 45.505 30.485 45 32 C46.093125 31.505 47.18625 31.01 48.3125 30.5 C52 29 52 29 55 29 C56.36623674 31.73247348 56.128426 33.98198902 56 37 C55 38 55 38 51.9375 38.0625 C50.968125 38.041875 49.99875 38.02125 49 38 C49.66 38.99 50.32 39.98 51 41 C54.72301503 41.47730962 55.79191085 41.1387261 59 39 C59 42.63 59 46.26 59 50 C55.28956952 50.34515632 53.53315375 50.37710875 50.4375 48.1875 C49.633125 47.465625 48.82875 46.74375 48 46 C47.13375 45.484375 46.2675 44.96875 45.375 44.4375 C43.19922656 43.12058449 41.61428495 41.95413441 40 40 C40 39.34 40 38.68 40 38 C39.01 38 38.02 38 37 38 C38.4597581 42.97672394 38.4597581 42.97672394 42.09765625 46.47265625 C43.66118782 47.30399743 45.24318707 48.10177521 46.84375 48.859375 C49 50 49 50 50.40625 51.578125 C52.40536187 53.61638644 52.40536187 53.61638644 58 54 C58 58.29 58 62.58 58 67 C56.5975 67.226875 55.195 67.45375 53.75 67.6875 C50.48020001 68.43297327 49.11403878 68.90306704 46.5 71.125 C44.54889152 74.86462459 44.28459697 77.80219475 44 82 C37.73426573 82.60247445 37.73426573 82.60247445 34.5625 80 C32.48314886 76.00764582 32.69768834 73.45909693 33 69 C33.66 69 34.32 69 35 69 C34.67 68.01 34.34 67.02 34 66 C32.906875 65.9175 31.81375 65.835 30.6875 65.75 C27 65 27 65 25.0625 62.9375 C24.711875 62.298125 24.36125 61.65875 24 61 C24.515625 60.649375 25.03125 60.29875 25.5625 59.9375 C27.34757737 57.93361488 27.34757737 57.93361488 27 54.5 C26.33682925 50.85107137 26.33682925 50.85107137 23.4375 49.0625 C22.2309375 48.5365625 22.2309375 48.5365625 21 48 C21.515625 48.721875 22.03125 49.44375 22.5625 50.1875 C24.21442982 53.4195366 24.06351675 54.61608307 23 58 C19.625 57.6875 19.625 57.6875 16 57 C13.49968346 53.24952518 13.46396446 51.44143734 14 47 C15.6875 44.0625 15.6875 44.0625 19 42 C23.36529599 41.58778077 27.62942031 41.71204087 32 42 C32 41.01 32 40.02 32 39 C22.56811914 37.95279402 22.56811914 37.95279402 14.1875 41.3125 C11.84992437 43.86085624 11.84992437 43.86085624 11 47 C6.59712222 45.65467623 4.45241369 43.90569587 2 40 C1.75 37.1875 1.75 37.1875 2 35 C4.97 34.505 4.97 34.505 8 34 C8 33.34 8 32.68 8 32 C7.01 31.67 6.02 31.34 5 31 C5.495 29.7315625 5.495 29.7315625 6 28.4375 C7.06105954 24.79010784 7.15109013 21.77725336 7 18 C5.68 18 4.36 18 3 18 C3.2475 19.0725 3.495 20.145 3.75 21.25 C4 25 4 25 2.0625 27.4375 C1.381875 27.953125 0.70125 28.46875 0 29 C-4.24044829 23.93881978 -5.56592208 20.67788055 -5 14 C-3 10.5625 -3 10.5625 -1 8 C2.3 8.99 5.6 9.98 9 11 C9 10.01 9 9.02 9 8 C8.071875 7.7525 7.14375 7.505 6.1875 7.25 C2.82214391 5.93025251 1.74084779 5.09484051 0 2 C0 1.34 0 0.68 0 0 Z " fill="#E2303C" transform="translate(190,174)"/>
<path d="M0 0 C14.40858386 0.1746495 25.592687 6.18718984 36 16.125 C48.17944718 29.05334523 53.94264833 45.40444447 53.6328125 62.9765625 C53.60960937 63.72679687 53.58640625 64.47703125 53.5625 65.25 C53.2325 65.25 52.9025 65.25 52.5625 65.25 C52.39234375 64.12722656 52.2221875 63.00445312 52.046875 61.84765625 C51.3290275 57.29179208 50.46669287 52.77203188 49.5625 48.25 C49.38847656 47.28578125 49.21445312 46.3215625 49.03515625 45.328125 C48.24248027 42.60769855 47.58314339 41.26189602 45.5625 39.25 C32.79359833 32.56014263 19.10795213 31.00859444 4.875 30.625 C3.68455078 30.58632812 2.49410156 30.54765625 1.26757812 30.5078125 C-1.63397053 30.41459005 -4.53552966 30.32878652 -7.4375 30.25 C-7.46215746 26.1382744 -7.48033959 22.02657722 -7.49243164 17.91479492 C-7.4974708 16.51504772 -7.50430216 15.1153058 -7.51293945 13.71557617 C-7.5250232 11.70754223 -7.53019807 9.69947043 -7.53515625 7.69140625 C-7.54039307 6.48170166 -7.54562988 5.27199707 -7.55102539 4.02563477 C-7.34092251 -1.11126769 -4.54068682 0.05865257 0 0 Z " fill="#FBA209" transform="translate(260.4375,126.75)"/>
<path d="M0 0 C0.66 -0.33 1.32 -0.66 2 -1 C7.00404498 -1.37766377 9.99885156 -1.11200434 14 2 C16.57239099 4.56890694 16.98929465 5.88762071 17.34057617 9.57519531 C17.34010403 10.99292728 17.32332145 12.41071791 17.29296875 13.828125 C17.28872391 14.57713074 17.28447906 15.32613647 17.28010559 16.09783936 C17.26335746 18.48226375 17.22571397 20.86583253 17.1875 23.25 C17.17244809 24.86977943 17.15876057 26.48957215 17.14648438 28.109375 C17.1134668 32.07324466 17.06171246 36.03647743 17 40 C14.36 40 11.72 40 9 40 C8.67 29.11 8.34 18.22 8 7 C6.68 7 5.36 7 4 7 C3.67 17.89 3.34 28.78 3 40 C0.36 40 -2.28 40 -5 40 C-5.33 29.11 -5.66 18.22 -6 7 C-7.32 7 -8.64 7 -10 7 C-10.33 17.89 -10.66 28.78 -11 40 C-13.64 40 -16.28 40 -19 40 C-19.1238948 35.10710835 -19.21447509 30.21513573 -19.2746582 25.32104492 C-19.29975347 23.65747161 -19.33383796 21.99400804 -19.37719727 20.33081055 C-19.4380746 17.93510847 -19.46625769 15.54086749 -19.48828125 13.14453125 C-19.51408768 12.4047554 -19.5398941 11.66497955 -19.56648254 10.90278625 C-19.56864778 6.88741955 -19.16802009 5.20580884 -16.59448242 2.0534668 C-11.268785 -2.16168715 -6.4085475 -1.2817095 0 0 Z " fill="#081C4D" transform="translate(240,337)"/>
<path d="M0 0 C3.20534923 0.02877333 6.11139022 0.45923429 9.25 1.125 C9.58 0.795 9.91 0.465 10.25 0.125 C15.00027435 -0.27756562 17.35031412 -0.34150379 21.625 1.875 C24.2364346 4.11337252 25.10900163 4.98380586 26.25 8.125 C26.41786322 10.70034673 26.48317374 13.16254393 26.4453125 15.734375 C26.4424826 16.46118469 26.43965271 17.18799438 26.43673706 17.93682861 C26.42557523 20.24972251 26.40047851 22.56222388 26.375 24.875 C26.36496501 26.44660898 26.35584006 28.01822404 26.34765625 29.58984375 C26.32564904 33.43504622 26.29114715 37.27995664 26.25 41.125 C23.61 41.125 20.97 41.125 18.25 41.125 C17.92 30.565 17.59 20.005 17.25 9.125 C15.93 8.795 14.61 8.465 13.25 8.125 C11.3269111 10.0480889 11.99678162 13.59570485 11.93359375 16.22265625 C11.91281265 16.93151474 11.89203156 17.64037323 11.87062073 18.37071228 C11.80505402 20.64287305 11.7462077 22.91515264 11.6875 25.1875 C11.64432151 26.72462183 11.60070745 28.2617315 11.55664062 29.79882812 C11.44936551 33.5740959 11.34811863 37.3494836 11.25 41.125 C8.94 41.125 6.63 41.125 4.25 41.125 C3.92 30.565 3.59 20.005 3.25 9.125 C1.93 8.795 0.61 8.465 -0.75 8.125 C-2.6730889 10.0480889 -2.00321838 13.59570485 -2.06640625 16.22265625 C-2.08718735 16.93151474 -2.10796844 17.64037323 -2.12937927 18.37071228 C-2.19494598 20.64287305 -2.2537923 22.91515264 -2.3125 25.1875 C-2.35567849 26.72462183 -2.39929255 28.2617315 -2.44335938 29.79882812 C-2.55063449 33.5740959 -2.65188137 37.3494836 -2.75 41.125 C-5.06 41.125 -7.37 41.125 -9.75 41.125 C-9.8738948 36.23210835 -9.96447509 31.34013573 -10.0246582 26.44604492 C-10.04975347 24.78247161 -10.08383796 23.11900804 -10.12719727 21.45581055 C-10.1880746 19.06010847 -10.21625769 16.66586749 -10.23828125 14.26953125 C-10.26408768 13.5297554 -10.2898941 12.78997955 -10.31648254 12.02778625 C-10.31867178 7.96791661 -9.92719055 6.33654543 -7.28198242 3.1784668 C-6.44642822 2.50082275 -5.61087402 1.82317871 -4.75 1.125 C-3.75 0.125 -3.75 0.125 0 0 Z " fill="#06194B" transform="translate(171.75,335.875)"/>
<path d="M0 0 C1 2 1 2 0.21484375 4.94140625 C-4.2067875 17.47612236 -10.00310976 25.13705789 -19.45166016 34.3359375 C-26.77401844 41.56556167 -31.84778695 49.17251227 -35 59 C-41.435 59.495 -41.435 59.495 -48 60 C-47.87943415 55.73145577 -47.75649066 51.46310977 -47.62768555 47.19482422 C-47.58465509 45.74597085 -47.54296107 44.2970771 -47.50268555 42.84814453 C-47.08904092 28.02843217 -47.08904092 28.02843217 -46 21 C-45.67 21.66 -45.34 22.32 -45 23 C-43.07530912 23.39368517 -43.07530912 23.39368517 -40.8125 23.5 C-37.83095164 23.70317195 -35.96738656 24.01538803 -33.2265625 25.30859375 C-28.33020313 26.35781362 -25.64024135 24.15824185 -21.5625 21.5625 C-20.80622314 21.0981958 -20.04994629 20.6338916 -19.27075195 20.15551758 C-14.21652116 16.97692529 -9.75336596 13.69170745 -6 9 C-5.236875 8.113125 -4.47375 7.22625 -3.6875 6.3125 C-2.19013622 4.26055704 -1.02933608 2.31600619 0 0 Z " fill="#E94D2E" transform="translate(312,197)"/>
<path d="M0 0 C1.60394026 0.10759662 3.208096 0.21205508 4.8125 0.3125 C9.03606579 0.78010907 11.61465598 2.40194529 15 5 C15.721875 5.350625 16.44375 5.70125 17.1875 6.0625 C19 7 19 7 20.375 8.5625 C22.40265303 10.61226743 22.40265303 10.61226743 28 11 C28 15.29 28 19.58 28 24 C26.5975 24.226875 25.195 24.45375 23.75 24.6875 C20.48020001 25.43297327 19.11403878 25.90306704 16.5 28.125 C14.54889152 31.86462459 14.28459697 34.80219475 14 39 C7.73426573 39.60247445 7.73426573 39.60247445 4.5625 37 C2.48314886 33.00764582 2.69768834 30.45909693 3 26 C3.66 26 4.32 26 5 26 C4.67 25.01 4.34 24.02 4 23 C2.906875 22.9175 1.81375 22.835 0.6875 22.75 C-3 22 -3 22 -4.9375 19.9375 C-5.288125 19.298125 -5.63875 18.65875 -6 18 C-5.484375 17.649375 -4.96875 17.29875 -4.4375 16.9375 C-2.65242263 14.93361488 -2.65242263 14.93361488 -3 11.5 C-3.66317075 7.85107137 -3.66317075 7.85107137 -6.5625 6.0625 C-7.366875 5.711875 -8.17125 5.36125 -9 5 C-8.484375 5.721875 -7.96875 6.44375 -7.4375 7.1875 C-5.78557018 10.4195366 -5.93648325 11.61608307 -7 15 C-10.375 14.6875 -10.375 14.6875 -14 14 C-16.50031654 10.24952518 -16.53603554 8.44143734 -16 4 C-11.92778512 -2.74021774 -6.803292 -1.07322165 0 0 Z " fill="#DF2142" transform="translate(220,217)"/>
<path d="M0 0 C1.98 0.99 3.96 1.98 6 3 C6 15.54 6 28.08 6 41 C4.68 40.67 3.36 40.34 2 40 C0.5653352 37.1306704 0.67238935 34.2682063 0.4765625 31.09375 C0.16441035 28.6125791 0.16441035 28.6125791 -3 27 C-2 25 -1 23 0 21 C0.0689472 19.62657169 0.08467708 18.24997898 0.0625 16.875 C0.041875 15.59625 0.02125 14.3175 0 13 C-0.66 13 -1.32 13 -2 13 C-2.0825 14.258125 -2.165 15.51625 -2.25 16.8125 C-2.61874698 19.54899077 -2.85105572 20.79520161 -4.5 23.0625 C-8.38647042 24.51992641 -11.98248987 23.71250714 -16 23 C-15.67 24.32 -15.34 25.64 -15 27 C-16.98 27.33 -18.96 27.66 -21 28 C-21 26.02 -21 24.04 -21 22 C-21.99 22 -22.98 22 -24 22 C-24.144375 22.969375 -24.28875 23.93875 -24.4375 24.9375 C-25 28 -25 28 -26 29 C-27.66617115 29.04063832 -29.33388095 29.042721 -31 29 C-31.66 27.68 -32.32 26.36 -33 25 C-36.27773504 25.75150023 -36.27773504 25.75150023 -38 29 C-37.68269476 32.63939932 -37.68269476 32.63939932 -37 36 C-33.7 36.33 -30.4 36.66 -27 37 C-27.66 37.66 -28.32 38.32 -29 39 C-27.35 39.66 -25.7 40.32 -24 41 C-27.71557914 43.47705276 -30.69321177 43.65254367 -35 43 C-39.89434784 40.59899917 -42.15529383 38.1241838 -44 33 C-44.58197698 29.00930069 -44.20642575 27.37598975 -42.25 23.8125 C-38.61946903 19.27433628 -38.61946903 19.27433628 -36 18 C-31.25636584 17.5185033 -26.62367048 17.80679471 -22 19 C-22 18.34 -22 17.68 -22 17 C-23.32 16.34 -24.64 15.68 -26 15 C-24.74155722 11.11980141 -23.57583797 9.0588158 -20 7 C-19.01 7 -18.02 7 -17 7 C-16.5875 8.11375 -16.175 9.2275 -15.75 10.375 C-14.64453484 12.99320695 -14.25119213 13.83493089 -11.8125 15.4375 C-11.214375 15.623125 -10.61625 15.80875 -10 16 C-11.08784968 12.75016865 -11.08784968 12.75016865 -13 10 C-13.4375 7.75 -13.4375 7.75 -13 5 C-8.88779462 0.48660385 -6.27147306 -0.89592472 0 0 Z " fill="#E65B2B" transform="translate(242,127)"/>
<path d="M0 0 C3 2.4375 3 2.4375 5 5 C5.33 5.33 5.66 5.66 6 6 C6.28315563 10.57682459 6.23187932 15.16546882 6.25 19.75 C6.270625 21.0390625 6.29125 22.328125 6.3125 23.65625 C6.31765625 24.89890625 6.3228125 26.1415625 6.328125 27.421875 C6.34214355 29.13262207 6.34214355 29.13262207 6.35644531 30.87792969 C5.95694605 34.37710538 5.10629294 36.20271465 3 39 C-1.2258785 41.81725233 -5.03624688 41.79958384 -10 41 C-12.82424288 38.80977082 -14.41508603 37.16982793 -16 34 C-16.32585719 29.58979106 -16.32460807 25.17074666 -16.375 20.75 C-16.41238281 19.52152344 -16.44976562 18.29304688 -16.48828125 17.02734375 C-16.58727017 6.87547963 -16.58727017 6.87547963 -13.6015625 3.203125 C-9.29210629 -0.44632441 -5.53820154 -0.88955569 0 0 Z " fill="#081C4D" transform="translate(279,336)"/>
<path d="M0 0 C3.69930748 1.6815034 5.96738652 3.48876198 8 7 C8.25644141 9.69199145 8.35046752 12.14305409 8.29296875 14.828125 C8.28872391 15.57713074 8.28447906 16.32613647 8.28010559 17.09783936 C8.26335746 19.48226375 8.22571397 21.86583253 8.1875 24.25 C8.17244809 25.86977943 8.15876057 27.48957215 8.14648438 29.109375 C8.1134668 33.07324466 8.06171246 37.03647743 8 41 C5.36 41 2.72 41 0 41 C0 37.7 0 34.4 0 31 C-1.98 31 -3.96 31 -6 31 C-6 34.3 -6 37.6 -6 41 C-8.64 41 -11.28 41 -14 41 C-14.1238948 36.10710835 -14.21447509 31.21513573 -14.2746582 26.32104492 C-14.29975347 24.65747161 -14.33383796 22.99400804 -14.37719727 21.33081055 C-14.4380746 18.93510847 -14.46625769 16.54086749 -14.48828125 14.14453125 C-14.51408768 13.4047554 -14.5398941 12.66497955 -14.56648254 11.90278625 C-14.56864778 7.88741955 -14.16802009 6.20580884 -11.59448242 3.0534668 C-7.52500871 -0.16741806 -5.20418089 -0.35282582 0 0 Z " fill="#091D4E" transform="translate(103,336)"/>
<path d="M0 0 C3.98066095 1.57724302 5.60667274 2.41000911 8 6 C8.17162025 8.68594915 8.23224552 11.26544901 8.1953125 13.94921875 C8.1924826 14.72183548 8.18965271 15.49445221 8.18673706 16.29048157 C8.17554878 18.75631243 8.15044703 21.22177906 8.125 23.6875 C8.11496843 25.36002079 8.10584289 27.03254728 8.09765625 28.70507812 C8.07561392 32.80352559 8.04109363 36.90170106 8 41 C5.69 41 3.38 41 1 41 C1 37.7 1 34.4 1 31 C-1.31 31 -3.62 31 -6 31 C-6 34.3 -6 37.6 -6 41 C-8.64 41 -11.28 41 -14 41 C-14.12408851 36.26783707 -14.21456516 31.53663168 -14.2746582 26.80322266 C-14.29972128 25.19498182 -14.33378171 23.58685398 -14.37719727 21.97900391 C-14.43821848 19.66019761 -14.46628963 17.34290335 -14.48828125 15.0234375 C-14.51408768 14.31069672 -14.5398941 13.59795593 -14.56648254 12.86361694 C-14.56864631 8.96611912 -14.00968761 6.54390754 -11.59448242 3.56103516 C-7.6640531 -0.31872428 -5.48495561 -0.36566371 0 0 Z " fill="#0A1D4E" transform="translate(357,336)"/>
<path d="M0 0 C14.64705882 0 14.64705882 0 19 4 C21 6 21 6 21.265625 8.86328125 C21.26046875 10.00152344 21.2553125 11.13976562 21.25 12.3125 C21.25515625 13.44300781 21.2603125 14.57351563 21.265625 15.73828125 C21 19 21 19 19.859375 21.60546875 C18.71178012 24.80308539 19.66223042 25.95080797 21 29 C21.1953125 32.11328125 21.1953125 32.11328125 21.125 35.3125 C21.10695313 36.38113281 21.08890625 37.44976562 21.0703125 38.55078125 C21.04710937 39.35902344 21.02390625 40.16726563 21 41 C18.66705225 41.04241723 16.33297433 41.04092937 14 41 C11.83436401 38.83436401 12.74257791 33.81698315 12.671875 30.8828125 C12.45015625 29.93148438 12.2284375 28.98015625 12 28 C10.35 27.01 8.7 26.02 7 25 C7 30.28 7 35.56 7 41 C4.69 41 2.38 41 0 41 C0 27.47 0 13.94 0 0 Z " fill="#061A4B" transform="translate(414,336)"/>
<path d="M0 0 C0.58007812 0.433125 1.16015625 0.86625 1.7578125 1.3125 C6.60973848 4.77887511 6.60973848 4.77887511 12.1875 6.6875 C16.15103072 5.71863694 18.05791892 3.80198198 21 1 C24.63 3.31 28.26 5.62 32 8 C31.34 8.33 30.68 8.66 30 9 C29.31672005 10.3248965 28.65192113 11.65939526 28 13 C22.86722074 20.0791016 13.47279428 26.72913847 5 29 C-0.33983678 29.00711346 -5.16957131 27.11678269 -10 25 C-9.85085893 16.349818 -6.25228652 6.25228652 0 0 Z M32 6 C32.99 6.495 32.99 6.495 34 7 C33.01 7.495 33.01 7.495 32 8 C32 7.34 32 6.68 32 6 Z " fill="#F16922" transform="translate(277,195)"/>
<path d="M0 0 C2.31 0 4.62 0 7 0 C7 5.61 7 11.22 7 17 C9.31 17 11.62 17 14 17 C14 11.39 14 5.78 14 0 C16.31 0 18.62 0 21 0 C22 1 22 1 22.11352539 4.78540039 C22.11336622 6.47282729 22.10766917 8.16025905 22.09765625 9.84765625 C22.0962413 10.7340831 22.09482635 11.62050995 22.09336853 12.53379822 C22.08775215 15.37673254 22.07519691 18.21958931 22.0625 21.0625 C22.05748711 22.98502491 22.05292384 24.90755104 22.04882812 26.83007812 C22.03777741 31.55341549 22.02050183 36.27669458 22 41 C19.36 41 16.72 41 14 41 C14 35.39 14 29.78 14 24 C11.69 24 9.38 24 7 24 C7 29.61 7 35.22 7 41 C4.69 41 2.38 41 0 41 C0 27.47 0 13.94 0 0 Z " fill="#091C4D" transform="translate(118,336)"/>
<path d="M0 0 C3.98066095 1.57724302 5.60667274 2.41000911 8 6 C8.17162025 8.68594915 8.23224552 11.26544901 8.1953125 13.94921875 C8.1924826 14.72183548 8.18965271 15.49445221 8.18673706 16.29048157 C8.17554878 18.75631243 8.15044703 21.22177906 8.125 23.6875 C8.11496843 25.36002079 8.10584289 27.03254728 8.09765625 28.70507812 C8.07561392 32.80352559 8.04109363 36.90170106 8 41 C5.36 41 2.72 41 0 41 C-0.33 30.11 -0.66 19.22 -1 8 C-2.32 8.33 -3.64 8.66 -5 9 C-5.33 19.56 -5.66 30.12 -6 41 C-8.64 41 -11.28 41 -14 41 C-14.12408851 36.26783707 -14.21456516 31.53663168 -14.2746582 26.80322266 C-14.29972128 25.19498182 -14.33378171 23.58685398 -14.37719727 21.97900391 C-14.43821848 19.66019761 -14.46628963 17.34290335 -14.48828125 15.0234375 C-14.51408768 14.31069672 -14.5398941 13.59795593 -14.56648254 12.86361694 C-14.56864631 8.96611912 -14.00968761 6.54390754 -11.59448242 3.56103516 C-7.6640531 -0.31872428 -5.48495561 -0.36566371 0 0 Z " fill="#0C1F50" transform="translate(305,336)"/>
<path d="M0 0 C2.06285794 4.12571588 2.36128662 6.5758185 1 11 C0.1110611 12.31090357 -0.80978187 13.6003744 -1.75 14.875 C-4.70289041 19.06596976 -6.31091089 23.21095312 -7.8125 28.0625 C-8.01907227 28.7229834 -8.22564453 29.3834668 -8.43847656 30.06396484 C-11.47070776 40.35061807 -11.30356634 50.89003215 -11.60546875 61.52929688 C-11.64285156 62.70169922 -11.68023437 63.87410156 -11.71875 65.08203125 C-11.76418945 66.67881714 -11.76418945 66.67881714 -11.81054688 68.30786133 C-12 71 -12 71 -13 74 C-13.66 74 -14.32 74 -15 74 C-15.17489638 52.98014633 -14.67045394 32.00696248 -14 11 C-15.32 11 -16.64 11 -18 11 C-17.99476318 12.26368408 -17.98952637 13.52736816 -17.98413086 14.8293457 C-17.96573851 19.61368066 -17.95444578 24.39801265 -17.94506836 29.18237305 C-17.94010502 31.2351128 -17.93333218 33.28784916 -17.92456055 35.34057617 C-17.86941468 48.59829122 -18.13788264 61.76887981 -19 75 C-19.66 75 -20.32 75 -21 75 C-21.27902053 66.4202242 -21.49172604 57.84236578 -21.62174606 49.25916386 C-21.68417876 45.27261858 -21.7687097 41.28919273 -21.90527344 37.30444336 C-22.0364411 33.45268537 -22.10755784 29.6039096 -22.13852692 25.75008965 C-22.16056806 24.28614774 -22.20362012 22.82235534 -22.26876068 21.35969734 C-22.53431286 15.14531118 -22.70934144 9.97185587 -18.43322754 5.03903198 C-12.3413216 -0.08890495 -7.79491964 -2.20856057 0 0 Z " fill="#F0741D" transform="translate(273,183)"/>
<path d="M0 0 C0.99 0.33 1.98 0.66 3 1 C3.43177893 7.26079448 2.92739438 10.09075703 -1 15 C-0.01 15.33 0.98 15.66 2 16 C1.34 16.66 0.68 17.32 0 18 C-0.33440218 23.09963328 -0.07146374 26.28988601 2 31 C-0.1249266 31.16759984 -2.24994376 31.33405201 -4.375 31.5 C-5.55835938 31.5928125 -6.74171875 31.685625 -7.9609375 31.78125 C-9.63786843 31.90195454 -11.31873056 32 -13 32 C-12.45276317 28.62537285 -11.9451 26.91765 -10 24 C-9.34 24 -8.68 24 -8 24 C-8.33 23.01 -8.66 22.02 -9 21 C-12.29148243 22.13499394 -12.9959869 22.99283376 -14.75 26.125 C-15.1625 27.07375 -15.575 28.0225 -16 29 C-17.4370809 29.05422947 -18.87475462 29.09289723 -20.3125 29.125 C-21.51326172 29.15980469 -21.51326172 29.15980469 -22.73828125 29.1953125 C-25 29 -25 29 -28 27 C-27.67 26.67 -27.34 26.34 -27 26 C-28.27875 25.731875 -29.5575 25.46375 -30.875 25.1875 C-34.49675855 24.42809901 -34.80051868 24.29922197 -37 21 C-36.65358161 17.53581611 -35.96713413 15.95070119 -34 13 C-33.01 13 -32.02 13 -31 13 C-30.01 14.485 -30.01 14.485 -29 16 C-26.41619823 16.25030977 -26.41619823 16.25030977 -24 16 C-23.34 14.02 -22.68 12.04 -22 10 C-21.01 10 -20.02 10 -19 10 C-18.67 11.65 -18.34 13.3 -18 15 C-16.68 14.67 -15.36 14.34 -14 14 C-14 12.68 -14 11.36 -14 10 C-13.07767578 10.14308594 -13.07767578 10.14308594 -12.13671875 10.2890625 C-11.32847656 10.39992187 -10.52023438 10.51078125 -9.6875 10.625 C-8.88699219 10.74101562 -8.08648437 10.85703125 -7.26171875 10.9765625 C-4.71276785 11.21533407 -4.71276785 11.21533407 -2 9 C-1.45897058 7.06830219 -1.45897058 7.06830219 -1.375 4.9375 C-1 1 -1 1 0 0 Z " fill="#E9542D" transform="translate(240,139)"/>
<path d="M0 0 C3.5386994 1.65139305 4.81070153 2.71605229 7 6 C7.07905064 8.33199388 7.08798769 10.66832622 7 13 C4.69 13 2.38 13 0 13 C-0.66 11.35 -1.32 9.7 -2 8 C-2.99 8 -3.98 8 -5 8 C-5.40816532 10.80265565 -5.40816532 10.80265565 -5 14 C-2.91463914 16.55702894 -2.91463914 16.55702894 -0.125 18.6875 C6.73338902 24.34420547 6.73338902 24.34420547 7.37109375 28.3046875 C7.48447955 32.69338482 7.42489458 35.29184236 5.125 39.125 C0.74006908 41.75595855 -3.00867369 42.04908008 -8 41 C-10.82424288 38.80977082 -12.41508603 37.16982793 -14 34 C-14.039992 32.00039988 -14.04346799 29.99952758 -14 28 C-11.66705225 27.95758277 -9.33297433 27.95907063 -7 28 C-6 29 -6 29 -5.9375 31.5625 C-5.958125 32.366875 -5.97875 33.17125 -6 34 C-3.525 33.505 -3.525 33.505 -1 33 C-0.54848113 30.71745196 -0.54848113 30.71745196 -1 28 C-3.33786255 25.31248688 -3.33786255 25.31248688 -6.375 22.875 C-13.82289711 16.5433252 -13.82289711 16.5433252 -14.4375 11.1875 C-14.33942654 6.35515326 -12.38803669 4.30736915 -9 1 C-5.93570224 -0.53214888 -3.3834358 -0.22938548 0 0 Z " fill="#0A1D4E" transform="translate(385,336)"/>
<path d="M0 0 C0.79792969 0.00386719 1.59585938 0.00773437 2.41796875 0.01171875 C3.21589844 0.00785156 4.01382813 0.00398438 4.8359375 0 C10.79136108 0.01011108 10.79136108 0.01011108 11.91796875 1.13671875 C12.04296875 4.13671875 12.04296875 4.13671875 11.91796875 7.13671875 C10.91796875 8.13671875 10.91796875 8.13671875 8.6328125 8.234375 C6.06119792 8.20182292 3.48958333 8.16927083 0.91796875 8.13671875 C0.91796875 11.43671875 0.91796875 14.73671875 0.91796875 18.13671875 C3.55796875 18.13671875 6.19796875 18.13671875 8.91796875 18.13671875 C8.91796875 20.44671875 8.91796875 22.75671875 8.91796875 25.13671875 C6.27796875 25.13671875 3.63796875 25.13671875 0.91796875 25.13671875 C0.91796875 30.41671875 0.91796875 35.69671875 0.91796875 41.13671875 C-1.72203125 41.13671875 -4.36203125 41.13671875 -7.08203125 41.13671875 C-7.1066783 35.45841797 -7.12486587 29.78014806 -7.13696289 24.10180664 C-7.14200381 22.1685329 -7.14883644 20.23526299 -7.1574707 18.30200195 C-7.1695469 15.52945003 -7.17526182 12.75694834 -7.1796875 9.984375 C-7.18484879 9.11458511 -7.19001007 8.24479523 -7.19532776 7.34864807 C-7.1955231 5.27766061 -7.14411293 3.20677551 -7.08203125 1.13671875 C-5.19650595 -0.74880655 -2.50434294 0.00425186 0 0 Z " fill="#0E2151" transform="translate(72.08203125,335.86328125)"/>
<path d="M0 0 C15.51 0 31.02 0 47 0 C48 6 48 6 46 9 C38.0807748 11.40711874 29.51598859 11.31035675 21.3125 11.25 C19.71825195 11.26160156 19.71825195 11.26160156 18.09179688 11.2734375 C11.74990567 11.25778817 6.13417959 10.61865263 0 9 C-1.125 2.25 -1.125 2.25 0 0 Z " fill="#DC0150" transform="translate(228,289)"/>
<path d="M0 0 C2.81084717 0.4015496 3.79532198 0.74808859 5.625 3 C8.83422231 5.702503 11.46572809 5.60564098 15.5625 5.82421875 C17.83547536 5.98813524 19.8015043 6.43663548 22 7 C22.99 7 23.98 7 25 7 C25 9.64 25 12.28 25 15 C24.39671875 15.08636719 23.7934375 15.17273438 23.171875 15.26171875 C19.20872571 15.95846596 16.61311834 16.47884941 13.5 19.125 C11.54889152 22.86462459 11.28459697 25.80219475 11 30 C4.73426573 30.60247445 4.73426573 30.60247445 1.5625 28 C-0.51685114 24.00764582 -0.30231166 21.45909693 0 17 C0.66 17 1.32 17 2 17 C1.67 16.01 1.34 15.02 1 14 C-0.093125 13.9175 -1.18625 13.835 -2.3125 13.75 C-6 13 -6 13 -7.9375 10.9375 C-8.288125 10.298125 -8.63875 9.65875 -9 9 C-7 7 -7 7 -4.6171875 6.8046875 C-3.71226562 6.82789063 -2.80734375 6.85109375 -1.875 6.875 C-0.50988281 6.90207031 -0.50988281 6.90207031 0.8828125 6.9296875 C1.58148438 6.95289063 2.28015625 6.97609375 3 7 C2.505 6.401875 2.01 5.80375 1.5 5.1875 C0 3 0 3 0 0 Z " fill="#DF1149" transform="translate(223,226)"/>
<path d="M0 0 C14.40858386 0.1746495 25.592687 6.18718984 36 16.125 C48.17944718 29.05334523 53.94264833 45.40444447 53.6328125 62.9765625 C53.60960937 63.72679687 53.58640625 64.47703125 53.5625 65.25 C53.2325 65.25 52.9025 65.25 52.5625 65.25 C52.40394531 64.17363281 52.24539063 63.09726563 52.08203125 61.98828125 C49.57951996 45.93157781 45.27586093 31.10468104 32.1875 20.375 C19.97341168 11.61772913 7.18536015 8.90725748 -7.4375 7.25 C-7.48004356 5.25045254 -7.47830783 3.24958364 -7.4375 1.25 C-5.56059942 -0.62690058 -2.50786973 0.03239444 0 0 Z " fill="#F9D58A" transform="translate(260.4375,126.75)"/>
<path d="M0 0 C0.33 0 0.66 0 1 0 C1 1.65 1 3.3 1 5 C1.55945313 5.13535156 2.11890625 5.27070313 2.6953125 5.41015625 C22.46279312 10.71750233 22.46279312 10.71750233 26.2890625 17.17578125 C27.08443891 21.69071205 25.89453277 24.70305395 23.5625 28.5625 C22.73095312 29.724853 21.88418927 30.87717141 21 32 C16.46873452 30.48957817 12.45642153 28.30952361 9 25 C7.96157435 22.68351201 6.9578025 20.35096976 6 18 C3.23402482 15.68256134 1.5834237 15.0607733 -2 14.6875 C-5.01969758 15.00205183 -7.2645129 15.71271195 -10 17 C-10.33 15.35 -10.66 13.7 -11 12 C-9.906875 11.566875 -8.81375 11.13375 -7.6875 10.6875 C-3.81735015 9.03105411 -3.81735015 9.03105411 -1 6 C-0.2730774 2.89160979 -0.2730774 2.89160979 0 0 Z " fill="#F28118" transform="translate(288,171)"/>
<path d="M0 0 C1.27423828 -0.00193359 1.27423828 -0.00193359 2.57421875 -0.00390625 C3.91419922 0.00189453 3.91419922 0.00189453 5.28125 0.0078125 C6.17457031 0.00394531 7.06789063 0.00007813 7.98828125 -0.00390625 C8.83777344 -0.00261719 9.68726563 -0.00132812 10.5625 0 C11.34689453 0.00112793 12.13128906 0.00225586 12.93945312 0.00341797 C14.78125 0.1328125 14.78125 0.1328125 15.78125 1.1328125 C15.82205783 3.13239614 15.82379356 5.13326504 15.78125 7.1328125 C13.47125 7.1328125 11.16125 7.1328125 8.78125 7.1328125 C8.78125 18.3528125 8.78125 29.5728125 8.78125 41.1328125 C6.14125 41.1328125 3.50125 41.1328125 0.78125 41.1328125 C0.78125 30.2428125 0.78125 19.3528125 0.78125 8.1328125 C-0.86875 8.1328125 -2.51875 8.1328125 -4.21875 8.1328125 C-5.21875 7.1328125 -5.21875 7.1328125 -5.34375 4.1328125 C-5.15500667 -0.39702751 -4.11997045 0.00592436 0 0 Z " fill="#132655" transform="translate(323.21875,335.8671875)"/>
<path d="M0 0 C3 0 3 0 4.46484375 1.4609375 C4.95082031 2.09257812 5.43679687 2.72421875 5.9375 3.375 C8.06114922 6.12724939 9.71817223 7.75772621 13 9 C15.08955941 9.27726924 15.08955941 9.27726924 17.25 9.1875 C18.03246094 9.17460937 18.81492188 9.16171875 19.62109375 9.1484375 C21.89488557 9.00655886 24.06767019 8.69013492 26.3125 8.3125 C30 8 30 8 32.5 8.9375 C34.79616606 12.09472834 34.46488861 15.21992213 34 19 C33.505 20.485 33.505 20.485 33 22 C30.03 21.67 27.06 21.34 24 21 C24 19.35 24 17.7 24 16 C20.72226496 16.75150023 20.72226496 16.75150023 19 20 C14.38 18.02 9.76 16.04 5 14 C4.67 14.66 4.34 15.32 4 16 C2 14.625 2 14.625 0 13 C0 12.34 0 11.68 0 11 C-0.99 10.67 -1.98 10.34 -3 10 C-2.25 3.375 -2.25 3.375 0 0 Z " fill="#E84932" transform="translate(193,164)"/>
<path d="M0 0 C3.33537489 1.11179163 4.63707344 2.47411298 7 5 C7.99 4.67 8.98 4.34 10 4 C13.13671875 5.21484375 13.13671875 5.21484375 16.6875 6.9375 C17.86699219 7.50339844 19.04648438 8.06929687 20.26171875 8.65234375 C21.16535156 9.09707031 22.06898438 9.54179687 23 10 C22.67 10.66 22.34 11.32 22 12 C21.29875 11.71125 20.5975 11.4225 19.875 11.125 C16.94547497 9.97866412 13.99078347 8.97374346 11 8 C12.26467795 11.79403384 13.61697513 12.06684293 17 14 C18.8125 15.375 18.8125 15.375 20 17 C20.3125 19.5625 20.3125 19.5625 20 22 C19.34 22.66 18.68 23.32 18 24 C14.5882874 23.62916167 11.31098205 22.89141824 8 22 C7.67 20.68 7.34 19.36 7 18 C5.68 18 4.36 18 3 18 C3.2475 19.0725 3.495 20.145 3.75 21.25 C4 25 4 25 2.0625 27.4375 C1.381875 27.953125 0.70125 28.46875 0 29 C-4.24044829 23.93881978 -5.56592208 20.67788055 -5 14 C-3 10.5625 -3 10.5625 -1 8 C2.3 8.99 5.6 9.98 9 11 C9 10.01 9 9.02 9 8 C8.071875 7.7525 7.14375 7.505 6.1875 7.25 C2.82214391 5.93025251 1.74084779 5.09484051 0 2 C0 1.34 0 0.68 0 0 Z " fill="#E43D38" transform="translate(190,174)"/>
<path d="M0 0 C0.58007812 0.433125 1.16015625 0.86625 1.7578125 1.3125 C6.60973848 4.77887511 6.60973848 4.77887511 12.1875 6.6875 C16.15103072 5.71863694 18.05791892 3.80198198 21 1 C24.63 3.31 28.26 5.62 32 8 C31.34 8.33 30.68 8.66 30 9 C29.7525 9.556875 29.505 10.11375 29.25 10.6875 C28.05919703 12.89048549 26.86471137 14.46799644 25.1875 16.3125 C24.46626953 17.11107422 24.46626953 17.11107422 23.73046875 17.92578125 C22 19 22 19 19.69140625 18.8515625 C16.54154718 17.85494526 13.71220497 16.52571477 10.75 15.0625 C5.47827274 12.56157819 0.73923929 10.97275242 -5 10 C-4.49701212 5.59885603 -2.91227269 3.28804981 0 0 Z M32 6 C32.99 6.495 32.99 6.495 34 7 C33.01 7.495 33.01 7.495 32 8 C32 7.34 32 6.68 32 6 Z " fill="#F3741D" transform="translate(277,195)"/>
<path d="M0 0 C2.31 0 4.62 0 7 0 C8 1 8 1 8.11352539 4.78540039 C8.11336622 6.47282729 8.10766917 8.16025905 8.09765625 9.84765625 C8.0962413 10.7340831 8.09482635 11.62050995 8.09336853 12.53379822 C8.08775215 15.37673254 8.07519691 18.21958931 8.0625 21.0625 C8.05748711 22.98502491 8.05292384 24.90755104 8.04882812 26.83007812 C8.03777741 31.55341549 8.02050183 36.27669458 8 41 C5.36 41 2.72 41 0 41 C0 27.47 0 13.94 0 0 Z " fill="#0E2151" transform="translate(147,336)"/>
<path d="M0 0 C2.31 0 4.62 0 7 0 C7 13.53 7 27.06 7 41 C4.69 41 2.38 41 0 41 C0 27.47 0 13.94 0 0 Z " fill="#031649" transform="translate(399,336)"/>
<path d="M0 0 C1.80810547 0.01904297 1.80810547 0.01904297 3.9921875 0.3671875 C9.06136068 1.05374352 14.0149234 1.15160756 19.125 1.125 C20.03209717 1.12306641 20.93919434 1.12113281 21.8737793 1.11914062 C29.61359929 1.07003788 37.28912864 0.66330076 45 0 C45.495 0.99 45.495 0.99 46 2 C45.37351562 2.02578125 44.74703125 2.0515625 44.1015625 2.078125 C43.28429687 2.13484375 42.46703125 2.1915625 41.625 2.25 C40.81289063 2.29640625 40.00078125 2.3428125 39.1640625 2.390625 C36.833655 2.78100529 36.833655 2.78100529 35.8359375 4.921875 C35.56007813 5.60765625 35.28421875 6.2934375 35 7 C33 9 33 9 31.11157227 9.24291992 C30.35416748 9.23881104 29.5967627 9.23470215 28.81640625 9.23046875 C27.9759375 9.22926025 27.13546875 9.22805176 26.26953125 9.22680664 C25.37621094 9.21383545 24.48289063 9.20086426 23.5625 9.1875 C22.65757812 9.18032959 21.75265625 9.17315918 20.8203125 9.16577148 C5.31382976 8.9780585 5.31382976 8.9780585 -2 7 C-2.125 4.625 -2.125 4.625 -2 2 C-1.34 1.34 -0.68 0.68 0 0 Z " fill="#DD064F" transform="translate(229,274)"/>
<path d="M0 0 C3.65492797 -0.65788704 6.01710398 -0.59179603 9.23828125 1.34765625 C11.21182354 2.83044202 13.11181197 4.40994692 15 6 C13.35 10.29 11.7 14.58 10 19 C3.565 19.495 3.565 19.495 -3 20 C-2.88613541 17.22829605 -2.75939222 14.45821954 -2.625 11.6875 C-2.5940625 10.90181641 -2.563125 10.11613281 -2.53125 9.30664062 C-2.49257813 8.54931641 -2.45390625 7.79199219 -2.4140625 7.01171875 C-2.3826416 6.31522217 -2.3512207 5.61872559 -2.31884766 4.90112305 C-2 3 -2 3 0 0 Z " fill="#E4313B" transform="translate(267,237)"/>
<path d="M0 0 C2.26369908 0.02189264 4.24961491 0.20126039 6.46435547 0.69189453 C9.34899003 1.21689078 11.99537978 1.30082685 14.92578125 1.28515625 C16.52583008 1.28032227 16.52583008 1.28032227 18.15820312 1.27539062 C19.26099609 1.26701172 20.36378906 1.25863281 21.5 1.25 C23.18319336 1.24323242 23.18319336 1.24323242 24.90039062 1.23632812 C27.6628151 1.22457313 30.42512998 1.20814077 33.1875 1.1875 C32.875 3.5625 32.875 3.5625 32.1875 6.1875 C28.71552079 8.50215281 27.3312291 8.44449485 23.234375 8.453125 C21.46900391 8.45699219 21.46900391 8.45699219 19.66796875 8.4609375 C18.43691406 8.45320313 17.20585937 8.44546875 15.9375 8.4375 C14.11412109 8.44910156 14.11412109 8.44910156 12.25390625 8.4609375 C6.19831848 8.44773011 0.88688032 8.31212107 -4.8125 6.1875 C-5.4375 4.3125 -5.4375 4.3125 -5.8125 2.1875 C-3.8125 0.1875 -3.8125 0.1875 0 0 Z " fill="#DE0250" transform="translate(232.8125,259.8125)"/>
<path d="M0 0 C4.95 0 9.9 0 15 0 C14.67 1.32 14.34 2.64 14 4 C13.96111651 6.33300933 13.9551365 8.66709801 14 11 C14.99 11.33 15.98 11.66 17 12 C17 9.36 17 6.72 17 4 C17.66 3.67 18.32 3.34 19 3 C19 6.96 19 10.92 19 15 C12.8797252 16.20894317 7.2341448 17.2770731 1 17 C1.33 14.69 1.66 12.38 2 10 C3.98 9.34 5.96 8.68 8 8 C7.67 7.34 7.34 6.68 7 6 C3.97065509 5.34227572 3.97065509 5.34227572 1 5 C0.67 3.35 0.34 1.7 0 0 Z " fill="#E64831" transform="translate(229,170)"/>
<path d="M0 0 C3.63 0 7.26 0 11 0 C11.625 2.8125 11.625 2.8125 12 6 C10 9 10 9 7.8046875 9.73046875 C0.10683145 10.93133429 -7.4663367 11.205403 -15.25 11.25 C-16.26723145 11.25926514 -17.28446289 11.26853027 -18.33251953 11.27807617 C-24.52523252 11.25233629 -30.0062295 10.56683627 -36 9 C-36.33 7.68 -36.66 6.36 -37 5 C-35.96488281 5.32355469 -34.92976562 5.64710938 -33.86328125 5.98046875 C-27.70700259 7.51445226 -21.49546318 7.3293392 -15.1875 7.3125 C-13.34768555 7.33666992 -13.34768555 7.33666992 -11.47070312 7.36132812 C-9.71209961 7.36229492 -9.71209961 7.36229492 -7.91796875 7.36328125 C-6.32118286 7.36775269 -6.32118286 7.36775269 -4.69213867 7.37231445 C-1.99334282 7.21784125 -1.99334282 7.21784125 -0.19262695 5.66479492 C1.19899959 3.89535144 1.19899959 3.89535144 2 1 C1.34 0.67 0.68 0.34 0 0 Z " fill="#87074D" transform="translate(264,260)"/>
<path d="M0 0 C-0.19335938 0.65484375 -0.38671875 1.3096875 -0.5859375 1.984375 C-0.84632813 2.89703125 -1.10671875 3.8096875 -1.375 4.75 C-1.63023437 5.63171875 -1.88546875 6.5134375 -2.1484375 7.421875 C-4.49859181 17.29683529 -5.33435992 26.92974179 -5.5625 37.0625 C-5.62232966 39.44932163 -5.685946 41.83605228 -5.75390625 44.22265625 C-5.77783447 45.26172119 -5.8017627 46.30078613 -5.82641602 47.37133789 C-6 50 -6 50 -7 53 C-7.66 53 -8.32 53 -9 53 C-9.13235918 35.63651131 -8.85300123 18.34360216 -8 1 C-5.29120665 -0.35439668 -2.99066732 -0.06501451 0 0 Z " fill="#EF6822" transform="translate(267,204)"/>
<path d="M0 0 C0 11.55 0 23.1 0 35 C-1.32 34.67 -2.64 34.34 -4 34 C-5.4346648 31.1306704 -5.32761065 28.2682063 -5.5234375 25.09375 C-5.83558965 22.6125791 -5.83558965 22.6125791 -9 21 C-8 19 -7 17 -6 15 C-5.76565288 13.0870598 -5.76565288 13.0870598 -5.75 11 C-5.72421875 10.29875 -5.6984375 9.5975 -5.671875 8.875 C-5.78015625 8.25625 -5.8884375 7.6375 -6 7 C-6.99 6.34 -7.98 5.68 -9 5 C-7.68921847 4.16396622 -6.37632511 3.3312426 -5.0625 2.5 C-3.96615234 1.80390625 -3.96615234 1.80390625 -2.84765625 1.09375 C-1 0 -1 0 0 0 Z " fill="#ED5A29" transform="translate(248,133)"/>
<path d="M0 0 C2.85694719 5.71389438 3.14893742 10.14210193 3.1328125 16.47265625 C3.13376923 17.30977646 3.13472595 18.14689667 3.13571167 19.00938416 C3.13639225 20.78889033 3.13454644 22.56839899 3.13037109 24.34790039 C3.12512193 27.0008749 3.13026686 29.6536721 3.13671875 32.30664062 C3.14077594 43.90086014 2.72519364 55.42911422 2 67 C1.34 67 0.68 67 0 67 C0 44.89 0 22.78 0 0 Z " fill="#CF562A" transform="translate(252,191)"/>
<path d="M0 0 C3.4375 1.5 3.4375 1.5 6 3 C5.77379437 6.16687885 4.96514363 7.03128136 2.5625 9.1875 C-1.8536905 11.43433376 -6.03614733 12.26783378 -11 12 C-13 10 -13 10 -13.5 7.6875 C-12.882249 4.3670884 -11.45628856 2.94739641 -8.77734375 0.94921875 C-5.72386929 -0.68153794 -3.36590653 -0.48084379 0 0 Z " fill="#F06825" transform="translate(242,127)"/>
<path d="M0 0 C11.29912383 -0.59008964 21.87444457 1.85388438 32 7 C32.495 7.99 32.495 7.99 33 9 C32.12819092 8.8928064 32.12819092 8.8928064 31.23876953 8.78344727 C24.42919347 8.01618053 17.72261099 7.88087217 10.875 7.9375 C9.823125 7.94201172 8.77125 7.94652344 7.6875 7.95117188 C5.12493779 7.96281989 2.56250123 7.97917447 0 8 C0 5.36 0 2.72 0 0 Z " fill="#FEB507" transform="translate(253,134)"/>
<path d="M0 0 C0.93423645 3.01031744 1.04449911 3.86650268 0 7 C-8.24829118 9.12684207 -16.20480227 9.2694376 -24.6875 9.1875 C-25.96689453 9.18685547 -27.24628906 9.18621094 -28.56445312 9.18554688 C-40.65038862 9.1290412 -40.65038862 9.1290412 -46 8 C-46.66 7.01 -47.32 6.02 -48 5 C-47.34 4.67 -46.68 4.34 -46 4 C-45.34 4.33 -44.68 4.66 -44 5 C-36.95818349 6.17363609 -29.68742545 6.21006523 -22.5625 6.375 C-21.68609863 6.41310791 -20.80969727 6.45121582 -19.90673828 6.49047852 C-17.50158627 6.52183794 -15.35453347 6.49594584 -13 6 C-10.47649769 3.67937788 -10.47649769 3.67937788 -9 1 C-6.04862276 -0.23767433 -3.17414294 -0.08817064 0 0 Z " fill="#82084D" transform="translate(275,276)"/>
<path d="M0 0 C1.9375 1 1.9375 1 3 3 C3.52960415 6.58042244 3.65886567 9.75978228 1.9375 13 C-1.13215135 14.58433618 -3.61681143 14.36248449 -7 14 C-8.9375 13 -8.9375 13 -10 11 C-10.52960415 7.41957756 -10.65886567 4.24021772 -8.9375 1 C-5.86784865 -0.58433618 -3.38318857 -0.36248449 0 0 Z " fill="#E10E5A" transform="translate(279,390)"/>
<path d="M0 0 C1.65 0.33 3.3 0.66 5 1 C5 9.25 5 17.5 5 26 C3.35 26.33 1.7 26.66 0 27 C-1.74545605 25.25454395 -1.1302316 22.83875783 -1.1328125 20.46875 C-1.13410156 19.34855469 -1.13539063 18.22835938 -1.13671875 17.07421875 C-1.13285156 15.89472656 -1.12898438 14.71523438 -1.125 13.5 C-1.12886719 12.32050781 -1.13273437 11.14101563 -1.13671875 9.92578125 C-1.13542969 8.80558594 -1.13414062 7.68539063 -1.1328125 6.53125 C-1.13168457 5.49548828 -1.13055664 4.45972656 -1.12939453 3.39257812 C-1 1 -1 1 0 0 Z " fill="#FBFBFC" transform="translate(272,343)"/>
<path d="M0 0 C0.33 0.66 0.66 1.32 1 2 C2.95878868 2.39308347 2.95878868 2.39308347 5.25 2.5 C8.83866883 2.81479551 11.72170599 3.41372871 15 5 C15 5.66 15 6.32 15 7 C13.42330631 8.37015264 11.78756162 9.67291702 10.125 10.9375 C7.11812455 13.22906462 5.10945975 14.83581038 3 18 C1.68 18 0.36 18 -1 18 C-1.11269443 11.8894576 -0.89604368 6.04829486 0 0 Z " fill="#EA5C27" transform="translate(266,218)"/>
<path d="M0 0 C7.21153846 -0.48076923 7.21153846 -0.48076923 10.5625 1.5625 C12 4 12 4 12 7.5625 C11 11 11 11 9.375 12.9375 C7 14 7 14 0 14 C0 9.38 0 4.76 0 0 Z " fill="#E21660" transform="translate(188,390)"/>
<path d="M0 0 C2.475 0.495 2.475 0.495 5 1 C5.66 2.98 6.32 4.96 7 7 C8.54571278 4.68143083 9.79618552 2.49361571 11 0 C12.32 0 13.64 0 15 0 C15 4.62 15 9.24 15 14 C14.01 14 13.02 14 12 14 C11.67 12.02 11.34 10.04 11 8 C10.34 9.98 9.68 11.96 9 14 C8.01 14 7.02 14 6 14 C5.34 12.35 4.68 10.7 4 9 C3.67 10.65 3.34 12.3 3 14 C2.01 14 1.02 14 0 14 C0 9.38 0 4.76 0 0 Z " fill="#E63575" transform="translate(306,390)"/>
<path d="M0 0 C1 1 1 1 1.09765625 3.06640625 C1.08605469 3.89011719 1.07445312 4.71382812 1.0625 5.5625 C1.05347656 6.38878906 1.04445312 7.21507812 1.03515625 8.06640625 C1.02355469 8.70449219 1.01195312 9.34257812 1 10 C0.36191406 9.98839844 -0.27617187 9.97679687 -0.93359375 9.96484375 C-2.17302734 9.95130859 -2.17302734 9.95130859 -3.4375 9.9375 C-4.26121094 9.92589844 -5.08492187 9.91429687 -5.93359375 9.90234375 C-7.99163938 9.76732652 -7.99163938 9.76732652 -9 11 C-10.51928038 11.07179964 -12.04167482 11.08392007 -13.5625 11.0625 C-14.38878906 11.05347656 -15.21507812 11.04445312 -16.06640625 11.03515625 C-16.70449219 11.02355469 -17.34257812 11.01195312 -18 11 C-12.85043291 2.90782314 -9.8783714 -0.36586561 0 0 Z " fill="#DF3B36" transform="translate(247,191)"/>
<path d="M0 0 C0 4.29 0 8.58 0 13 C-1.423125 13.020625 -2.84625 13.04125 -4.3125 13.0625 C-5.51326172 13.07990234 -5.51326172 13.07990234 -6.73828125 13.09765625 C-9 13 -9 13 -12 12 C-12.32469403 7.34605219 -11.79790518 4.76641082 -9 1 C-6.04335481 -0.4783226 -3.25770263 -0.06032783 0 0 Z " fill="#D90050" transform="translate(249,245)"/>
<path d="M0 0 C15.51 0 31.02 0 47 0 C47 0.66 47 1.32 47 2 C37.25703939 3.87031445 27.81604112 4.19698456 17.9375 4 C15.19663172 3.94660027 12.45603693 3.9068603 9.71484375 3.875 C8.51980225 3.85179687 7.32476074 3.82859375 6.09350586 3.8046875 C3.11550088 3.9927077 1.49590416 4.43297474 -1 6 C-0.67 4.02 -0.34 2.04 0 0 Z " fill="#EA5F26" transform="translate(228,289)"/>
<path d="M0 0 C1.81564453 0.24363281 1.81564453 0.24363281 3.66796875 0.4921875 C9.87988398 1.17956658 16.06927913 1.14584548 22.3125 1.125 C23.45912109 1.12886719 24.60574219 1.13273437 25.78710938 1.13671875 C33.23967771 1.12828347 40.58471075 0.74144448 48 0 C47.67 0.99 47.34 1.98 47 3 C38.70456646 4.63213236 30.75973882 5.31215013 22.3125 5.25 C20.71825195 5.26160156 20.71825195 5.26160156 19.09179688 5.2734375 C12.77705868 5.25785517 7.05481198 4.87069371 1 3 C0.67 2.01 0.34 1.02 0 0 Z " fill="#72094C" transform="translate(227,295)"/>
<path d="M0 0 C5 1 5 1 6.36328125 2.62890625 C7.2421875 4.41927083 8.12109375 6.20963542 9 8 C9.33 5.36 9.66 2.72 10 0 C10.99 0 11.98 0 13 0 C13 4.62 13 9.24 13 14 C8 13 8 13 6.63671875 11.37109375 C5.31835938 8.68554688 5.31835938 8.68554688 4 6 C3.67 8.64 3.34 11.28 3 14 C2.01 14 1.02 14 0 14 C0 9.38 0 4.76 0 0 Z " fill="#E2155F" transform="translate(344,390)"/>
<path d="M0 0 C1.80810547 0.01904297 1.80810547 0.01904297 3.9921875 0.3671875 C9.06136068 1.05374352 14.0149234 1.15160756 19.125 1.125 C20.03209717 1.12306641 20.93919434 1.12113281 21.8737793 1.11914062 C29.61359929 1.07003788 37.28912864 0.66330076 45 0 C45.495 0.99 45.495 0.99 46 2 C36.12304655 4.08343794 26.66810854 4.15295782 16.61083984 3.88354492 C14.64969345 3.83507734 12.6880986 3.80598652 10.7265625 3.77734375 C9.57752441 3.74890381 8.42848633 3.72046387 7.24462891 3.69116211 C3.57178158 4.04075969 1.17541232 5.17066678 -2 7 C-2.125 4.625 -2.125 4.625 -2 2 C-1.34 1.34 -0.68 0.68 0 0 Z " fill="#F26D27" transform="translate(229,274)"/>
<path d="M0 0 C0.33 0 0.66 0 1 0 C1.33 14.85 1.66 29.7 2 45 C3.485 44.505 3.485 44.505 5 44 C8 48.625 8 48.625 8 52 C2.65116279 57 2.65116279 57 0 57 C0 38.19 0 19.38 0 0 Z " fill="#D47C1E" transform="translate(252,129)"/>
<path d="M0 0 C1.65 0.33 3.3 0.66 5 1 C6.32 5.29 7.64 9.58 9 14 C7.68 14 6.36 14 5 14 C5 13.01 5 12.02 5 11 C3.02 11 1.04 11 -1 11 C-1.33 11.99 -1.66 12.98 -2 14 C-2.99 14 -3.98 14 -5 14 C-4.54636829 12.41531323 -4.08688548 10.83230076 -3.625 9.25 C-3.36976562 8.36828125 -3.11453125 7.4865625 -2.8515625 6.578125 C-2.0790066 4.23919428 -1.16374324 2.16557438 0 0 Z " fill="#E21760" transform="translate(131,390)"/>
<path d="M0 0 C6.93359375 -0.09765625 6.93359375 -0.09765625 9 0 C10 1 10 1 10.1875 3.9375 C10 7 10 7 8 9 C6.68 9 5.36 9 4 9 C4 10.65 4 12.3 4 14 C2.68 14 1.36 14 0 14 C0 9.38 0 4.76 0 0 Z " fill="#E73D7B" transform="translate(145,390)"/>
<path d="M0 0 C1.65 0.33 3.3 0.66 5 1 C5 6.28 5 11.56 5 17 C3.02 17 1.04 17 -1 17 C-1.02684679 14.35409986 -1.04676357 11.70846904 -1.0625 9.0625 C-1.07087891 8.30775391 -1.07925781 7.55300781 -1.08789062 6.77539062 C-1.09652441 4.85005687 -1.05224333 2.92464419 -1 1 C-0.67 0.67 -0.34 0.34 0 0 Z " fill="#F7F7F9" transform="translate(98,343)"/>
<path d="M0 0 C6.0546875 -0.1953125 6.0546875 -0.1953125 8 0 C10 2 10 2 10.3125 4.5 C10.1578125 5.7375 10.1578125 5.7375 10 7 C7 9 7 9 3 9 C3 10.65 3 12.3 3 14 C2.01 14 1.02 14 0 14 C0 9.38 0 4.76 0 0 Z " fill="#E63273" transform="translate(289,390)"/>
<path d="M0 0 C1.32 0.33 2.64 0.66 4 1 C4 6.28 4 11.56 4 17 C2.02 17 0.04 17 -2 17 C-2.05383848 14.54137599 -2.09359038 12.0839245 -2.125 9.625 C-2.14175781 8.92632812 -2.15851563 8.22765625 -2.17578125 7.5078125 C-2.19344267 5.67102514 -2.10303261 3.83398037 -2 2 C-1.34 1.34 -0.68 0.68 0 0 Z " fill="#F6F7F9" transform="translate(353,343)"/>
<path d="M0 0 C2.203125 0.1328125 2.203125 0.1328125 4.48217773 0.63500977 C7.36653487 1.16270866 10.01081296 1.24614037 12.94140625 1.23046875 C14.54145508 1.22563477 14.54145508 1.22563477 16.17382812 1.22070312 C17.27662109 1.21232422 18.37941406 1.20394531 19.515625 1.1953125 C21.19881836 1.18854492 21.19881836 1.18854492 22.91601562 1.18164062 C25.6784401 1.16988563 28.44075498 1.15345327 31.203125 1.1328125 C31.203125 1.7928125 31.203125 2.4528125 31.203125 3.1328125 C26.50652037 3.89240344 22.03648848 4.24290454 17.28125 4.1953125 C15.37279297 4.18371094 15.37279297 4.18371094 13.42578125 4.171875 C11.42887151 4.1522397 9.43196176 4.13259744 7.43505859 4.11230469 C5.48798908 4.09425427 3.54086691 4.08219724 1.59375 4.0703125 C-0.1382666 4.05291016 -0.1382666 4.05291016 -1.90527344 4.03515625 C-4.86615795 3.99811429 -4.86615795 3.99811429 -7.796875 5.1328125 C-6.58015352 -0.2555255 -5.5828505 0.02130859 0 0 Z " fill="#DE642A" transform="translate(234.796875,259.8671875)"/>
<path d="M0 0 C6.0546875 -0.1953125 6.0546875 -0.1953125 8 0 C8.66 0.66 9.32 1.32 10 2 C9.625 5.125 9.625 5.125 9 8 C7.02 8.33 5.04 8.66 3 9 C3 10.65 3 12.3 3 14 C2.01 14 1.02 14 0 14 C0 9.38 0 4.76 0 0 Z " fill="#E52B6F" transform="translate(162,390)"/>
<path d="M0 0 C0.99 0.33 1.98 0.66 3 1 C3.49029622 8.23186925 3.49029622 8.23186925 1.125 11.9375 C-1.82726511 14.80293378 -3.42921266 15.15459124 -7.4375 15.1875 C-8.61119141 15.20876953 -8.61119141 15.20876953 -9.80859375 15.23046875 C-12 15 -12 15 -15 13 C-14.67 12.01 -14.34 11.02 -14 10 C-13.07767578 10.14308594 -13.07767578 10.14308594 -12.13671875 10.2890625 C-11.32847656 10.39992187 -10.52023438 10.51078125 -9.6875 10.625 C-8.88699219 10.74101562 -8.08648437 10.85703125 -7.26171875 10.9765625 C-4.71276785 11.21533407 -4.71276785 11.21533407 -2 9 C-1.45897058 7.06830219 -1.45897058 7.06830219 -1.375 4.9375 C-1 1 -1 1 0 0 Z " fill="#0C1745" transform="translate(240,139)"/>
<path d="M0 0 C0.33 0 0.66 0 1 0 C1.06058594 0.75925781 1.12117187 1.51851562 1.18359375 2.30078125 C1.26738281 3.29464844 1.35117188 4.28851563 1.4375 5.3125 C1.55931641 6.79169922 1.55931641 6.79169922 1.68359375 8.30078125 C1.91812559 11.09375599 1.91812559 11.09375599 3 14 C5.69278672 14.96103058 5.69278672 14.96103058 8.875 15.5625 C12.58799533 16.35430744 14.81163304 16.87442202 18 19 C12.71776236 20.76074588 8.62314139 20.79625804 3.6875 18.375 C-0.17709226 14.95977893 -1.79847115 12.01528847 -2.3125 6.875 C-2.00859056 4.07903318 -1.46151961 2.37496936 0 0 Z " fill="#E34C33" transform="translate(200,150)"/>
<path d="M0 0 C0.99 0 1.98 0 3 0 C3.48212214 1.56159059 3.96055873 3.12431928 4.4375 4.6875 C4.83775391 5.99267578 4.83775391 5.99267578 5.24609375 7.32421875 C6.66087508 12.34559289 7.10257274 16.76879044 7 22 C5.68 21.67 4.36 21.34 3 21 C2.49265716 18.6263603 1.99397614 16.25142575 1.5 13.875 C1.35691406 13.20984375 1.21382812 12.5446875 1.06640625 11.859375 C0.2387717 7.83943578 -0.15330658 4.10095101 0 0 Z " fill="#FFBB1A" transform="translate(234,92)"/>
<path d="M0 0 C2.54250021 0.11474466 5.08347338 0.2414697 7.625 0.375 C8.33785156 0.4059375 9.05070312 0.436875 9.78515625 0.46875 C14.17152608 0.71020155 17.8594834 1.39342731 22 3 C21.67 3.99 21.34 4.98 21 6 C18.27001324 5.88562349 15.5415418 5.75888594 12.8125 5.625 C12.04357422 5.5940625 11.27464844 5.563125 10.48242188 5.53125 C6.26102289 5.31383889 2.85927672 4.90256928 -1 3 C-0.67 2.01 -0.34 1.02 0 0 Z " fill="#FFBB1A" transform="translate(323,199)"/>
<path d="M0 0 C1.32 0 2.64 0 4 0 C3.07485476 4.51031447 0.81698605 7.5484059 -1.8125 11.25 C-2.25142578 11.8996875 -2.69035156 12.549375 -3.14257812 13.21875 C-4.45703125 15.078125 -4.45703125 15.078125 -7 18 C-8.32 18 -9.64 18 -11 18 C-9.47599972 13.64922501 -7.20755831 9.97272027 -4.625 6.1875 C-4.23828125 5.59001953 -3.8515625 4.99253906 -3.453125 4.37695312 C-2.2890625 2.66796875 -2.2890625 2.66796875 0 0 Z " fill="#FFBA18" transform="translate(309,113)"/>
<path d="M0 0 C4.35077499 1.52400028 8.02727973 3.79244169 11.8125 6.375 C12.7087207 6.95507812 12.7087207 6.95507812 13.62304688 7.546875 C15.33203125 8.7109375 15.33203125 8.7109375 18 11 C18 12.32 18 13.64 18 15 C13.48968553 14.07485476 10.4515941 11.81698605 6.75 9.1875 C6.1003125 8.74857422 5.450625 8.30964844 4.78125 7.85742188 C2.921875 6.54296875 2.921875 6.54296875 0 4 C0 2.68 0 1.36 0 0 Z " fill="#FFBA15" transform="translate(306,234)"/>
<path d="M0 0 C1.18239258 0.00676758 1.18239258 0.00676758 2.38867188 0.01367188 C4.32164761 0.02538688 6.25458393 0.04332002 8.1875 0.0625 C7.8575 1.0525 7.5275 2.0425 7.1875 3.0625 C4.81311751 3.4008344 2.43815041 3.73329002 0.0625 4.0625 C-0.60265625 4.15789062 -1.2678125 4.25328125 -1.953125 4.3515625 C-5.93878981 4.89861453 -9.79109938 5.16272182 -13.8125 5.0625 C-13.8125 3.7425 -13.8125 2.4225 -13.8125 1.0625 C-9.18790756 -0.11450048 -4.73383538 -0.05158412 0 0 Z " fill="#FFBA18" transform="translate(169.8125,199.9375)"/>
<path d="M0 0 C0.80824219 0.11085937 1.61648438 0.22171875 2.44921875 0.3359375 C3.37154297 0.47902344 3.37154297 0.47902344 4.3125 0.625 C4.6425 2.605 4.9725 4.585 5.3125 6.625 C-0.2975 6.625 -5.9075 6.625 -11.6875 6.625 C-5.72386364 -0.82954545 -5.72386364 -0.82954545 0 0 Z " fill="#F28018" transform="translate(268.6875,182.375)"/>
<path d="M0 0 C0.99 0 1.98 0 3 0 C3.26442904 7.59498961 2.60881575 14.57359158 1 22 C0.01 22 -0.98 22 -2 22 C-2.10792492 14.91293037 -2.03581937 8.02055353 -1 1 C-0.67 0.67 -0.34 0.34 0 0 Z " fill="#FFBA17" transform="translate(261,92)"/>
<path d="M0 0 C7.00897689 1.72931766 13.50288191 3.83967342 20 7 C20 7.99 20 8.98 20 10 C12.84831485 9.50104522 6.58708719 6.68436185 0 4 C0 2.68 0 1.36 0 0 Z " fill="#FFB914" transform="translate(317,218)"/>
<path d="M0 0 C0 0.99 0 1.98 0 3 C-2.74569923 4.34287473 -5.49594266 5.67446996 -8.25 7 C-9.02730469 7.3815625 -9.80460937 7.763125 -10.60546875 8.15625 C-11.73662109 8.69765625 -11.73662109 8.69765625 -12.890625 9.25 C-13.58188477 9.58515625 -14.27314453 9.9203125 -14.98535156 10.265625 C-17 11 -17 11 -21 11 C-20.953125 9.234375 -20.953125 9.234375 -20 7 C-17.57074575 5.54244745 -15.32386602 4.37939884 -12.75 3.25 C-12.08097656 2.93417969 -11.41195313 2.61835938 -10.72265625 2.29296875 C-7.02780704 0.61613148 -4.0697634 -0.4101312 0 0 Z " fill="#FFB914" transform="translate(341,153)"/>
<path d="M0 0 C3.85951071 0.58964747 6.03750574 2.40926545 9 4.875 C11.95702604 7.31815261 14.91046123 9.72575619 18 12 C17.67 13.32 17.34 14.64 17 16 C12.84646965 14.26250834 9.65665698 11.43382517 6.25 8.5625 C5.64800781 8.07201172 5.04601562 7.58152344 4.42578125 7.07617188 C2.89016877 5.78604847 1.4377908 4.39831388 0 3 C0 2.01 0 1.02 0 0 Z " fill="#FFB913" transform="translate(171,131)"/>
<path d="M0 0 C0 0.99 0 1.98 0 3 C-7.31074682 4.66594452 -14.52165033 5.51172287 -22 6 C-22 5.01 -22 4.02 -22 3 C-4.6160221 -1.53867403 -4.6160221 -1.53867403 0 0 Z " fill="#FFBA15" transform="translate(346,177)"/>
<path d="M0 0 C0.99 0 1.98 0 3 0 C3.46707789 4.01686987 3.32150834 5.56501812 0.875 8.875 C-2 11 -2 11 -5 11.625 C-8.92660732 10.80695681 -10.44578533 9.00495843 -13 6 C-12.67 5.01 -12.34 4.02 -12 3 C-11.01 3 -10.02 3 -9 3 C-8.01 4.485 -8.01 4.485 -7 6 C-4.41619823 6.25030977 -4.41619823 6.25030977 -2 6 C-1.34 4.02 -0.68 2.04 0 0 Z " fill="#111844" transform="translate(218,149)"/>
<path d="M0 0 C2.38678756 0.38389113 3.68762299 0.67525978 5.38793945 2.44287109 C5.79230225 3.04695801 6.19666504 3.65104492 6.61328125 4.2734375 C7.05607422 4.9334375 7.49886719 5.5934375 7.95507812 6.2734375 C8.40302734 6.96695313 8.85097656 7.66046875 9.3125 8.375 C9.77978516 9.06078125 10.24707031 9.7465625 10.72851562 10.453125 C13.25554321 14.29032494 13.25554321 14.29032494 14 16 C13.67 16.99 13.34 17.98 13 19 C8.69914767 17.48089161 6.70149854 14.25034312 4.25 10.625 C3.83878906 10.0475 3.42757812 9.47 3.00390625 8.875 C0.71653783 5.54653698 0 4.15641082 0 0 Z " fill="#FFB912" transform="translate(188,113)"/>
<path d="M0 0 C1.32 0 2.64 0 4 0 C3.26951699 4.68803656 1.63363115 8.90885555 -0.0625 13.3125 C-0.34416016 14.05306641 -0.62582031 14.79363281 -0.91601562 15.55664062 C-1.60718575 17.37242655 -2.30311689 19.18639899 -3 21 C-3.99 21 -4.98 21 -6 21 C-5.55355616 13.41045469 -2.88499438 6.98360263 0 0 Z " fill="#FFB913" transform="translate(288,100)"/>
<path d="M0 0 C2.64 0 5.28 0 8 0 C8 0.66 8 1.32 8 2 C6.35 2 4.7 2 3 2 C3 2.99 3 3.98 3 5 C4.65 5 6.3 5 8 5 C8 5.99 8 6.98 8 8 C6.35 8 4.7 8 3 8 C3 8.99 3 9.98 3 11 C4.65 11 6.3 11 8 11 C8 11.99 8 12.98 8 14 C5.36 14 2.72 14 0 14 C0 9.38 0 4.76 0 0 Z " fill="#E21660" transform="translate(329,390)"/>
<path d="M0 0 C2.64 0 5.28 0 8 0 C8 0.66 8 1.32 8 2 C6.35 2 4.7 2 3 2 C3 2.99 3 3.98 3 5 C4.65 5 6.3 5 8 5 C8 5.99 8 6.98 8 8 C6.35 8 4.7 8 3 8 C3 8.99 3 9.98 3 11 C4.65 11 6.3 11 8 11 C8 11.99 8 12.98 8 14 C5.36 14 2.72 14 0 14 C0 9.38 0 4.76 0 0 Z " fill="#E21660" transform="translate(239,390)"/>
<path d="M0 0 C2.64 0 5.28 0 8 0 C8 0.66 8 1.32 8 2 C6.35 2 4.7 2 3 2 C3 2.99 3 3.98 3 5 C4.65 5 6.3 5 8 5 C8 5.99 8 6.98 8 8 C6.35 8 4.7 8 3 8 C3 8.99 3 9.98 3 11 C4.65 11 6.3 11 8 11 C8 11.99 8 12.98 8 14 C5.36 14 2.72 14 0 14 C0 9.38 0 4.76 0 0 Z " fill="#E21660" transform="translate(207,390)"/>
<path d="M0 0 C0.99 0.33 1.98 0.66 3 1 C1.4493407 5.56642429 -2.1602808 7.65813464 -5.9375 10.3125 C-6.57107422 10.77978516 -7.20464844 11.24707031 -7.85742188 11.72851562 C-9.51252965 12.90675744 -11.25275552 13.96328776 -13 15 C-13.99 14.67 -14.98 14.34 -16 14 C-14.4493407 9.43357571 -10.8397192 7.34186536 -7.0625 4.6875 C-6.11213867 3.98657227 -6.11213867 3.98657227 -5.14257812 3.27148438 C-3.48747035 2.09324256 -1.74724448 1.03671224 0 0 Z " fill="#FFB810" transform="translate(192,234)"/>
<path d="M0 0 C-0.28393555 1.89355469 -0.28393555 1.89355469 -1 4 C-3.63394019 5.29762477 -6.05631522 6.30474678 -8.8125 7.25 C-9.53759766 7.518125 -10.26269531 7.78625 -11.00976562 8.0625 C-14.65715925 9.37062287 -17.02891632 10 -21 10 C-20.71606445 8.10644531 -20.71606445 8.10644531 -20 6 C-17.36605981 4.70237523 -14.94368478 3.69525322 -12.1875 2.75 C-11.46240234 2.481875 -10.73730469 2.21375 -9.99023438 1.9375 C-6.34284075 0.62937713 -3.97108368 0 0 0 Z " fill="#FFB810" transform="translate(184,218)"/>
<path d="M0 0 C0.66 0.66 1.32 1.32 2 2 C1.44444444 6.55555556 1.44444444 6.55555556 0 8 C-3.60748837 8.50104005 -4.7845747 8.15319133 -7.8125 6 C-8.534375 5.34 -9.25625 4.68 -10 4 C-9.625 2.0625 -9.625 2.0625 -9 0 C-5.88135455 -1.55932272 -3.33704665 -0.65549131 0 0 Z " fill="#E6731D" transform="translate(291,190)"/>
<path d="M0 0 C7.07081565 -0.27195445 15.5699856 -0.2150072 22 3 C22 3.99 22 4.98 22 6 C14.25847464 6.39363688 7.47941368 4.94210433 0 3 C0 2.01 0 1.02 0 0 Z " fill="#FFB915" transform="translate(154,177)"/>
<path d="M0 0 C-0.86620198 5.07063416 -4.09745638 7.13438696 -7.875 10.3125 C-8.51308594 10.87517578 -9.15117187 11.43785156 -9.80859375 12.01757812 C-10.73478516 12.80745117 -10.73478516 12.80745117 -11.6796875 13.61328125 C-12.24413574 14.09579346 -12.80858398 14.57830566 -13.39013672 15.07543945 C-14.18701904 15.53309692 -14.18701904 15.53309692 -15 16 C-15.99 15.67 -16.98 15.34 -18 15 C-16.51811601 11.43869816 -14.52954306 9.4415828 -11.625 6.9375 C-10.85414063 6.26589844 -10.08328125 5.59429687 -9.2890625 4.90234375 C-3.39014374 0 -3.39014374 0 0 0 Z " fill="#FFB810" transform="translate(329,131)"/>
<path d="M0 0 C1.32 0 2.64 0 4 0 C5.01031065 2.55885226 6.00840145 5.12140376 7 7.6875 C7.28617188 8.40873047 7.57234375 9.12996094 7.8671875 9.87304688 C9.3390502 13.71040321 10.39614998 16.81566589 10 21 C9.01 21 8.02 21 7 21 C5.82504857 18.06574629 4.66149148 15.12710487 3.5 12.1875 C3.16613281 11.35412109 2.83226562 10.52074219 2.48828125 9.66210938 C2.17246094 8.85966797 1.85664063 8.05722656 1.53125 7.23046875 C1.23798828 6.49207764 0.94472656 5.75368652 0.64257812 4.99291992 C0 3 0 3 0 0 Z " fill="#FFB912" transform="translate(208,100)"/>
<path d="M0 0 C2.81084717 0.4015496 3.79532198 0.74808859 5.625 3 C9.28799649 6.08462862 13.34339241 5.82226689 18 6 C17.67 7.32 17.34 8.64 17 10 C7.33229932 10.85977575 7.33229932 10.85977575 3.4375 7.8125 C1.00829509 5.00957126 0.20835805 3.64626587 0 0 Z " fill="#101446" transform="translate(223,226)"/>
<path d="M0 0 C5.00600922 0.54681024 8.97181067 2.24140333 13.375 4.5625 C14.01566406 4.89185547 14.65632812 5.22121094 15.31640625 5.56054688 C16.88138632 6.36639482 18.44124021 7.18218493 20 8 C20 8.99 20 9.98 20 11 C14.99399078 10.45318976 11.02818933 8.75859667 6.625 6.4375 C5.66400391 5.9434668 5.66400391 5.9434668 4.68359375 5.43945312 C3.11861368 4.63360518 1.55875979 3.81781507 0 3 C0 2.01 0 1.02 0 0 Z " fill="#FFB80F" transform="translate(160,153)"/>
<path d="M0 0 C1.875 0.125 1.875 0.125 4 1 C5.25 4.0625 5.25 4.0625 6 7 C7.54571278 4.68143083 8.79618552 2.49361571 10 0 C10.99 0.33 11.98 0.66 13 1 C12.43711205 2.98507824 11.84902373 4.96302563 11.25 6.9375 C10.92515625 8.03964844 10.6003125 9.14179688 10.265625 10.27734375 C9 13 9 13 6.859375 13.87890625 C5.93898437 13.93884766 5.93898437 13.93884766 5 14 C4.35089846 12.41800369 3.70585306 10.83434276 3.0625 9.25 C2.70285156 8.36828125 2.34320313 7.4865625 1.97265625 6.578125 C1.14643424 4.38813896 0.50630057 2.28101729 0 0 Z " fill="#E31A63" transform="translate(220,390)"/>
<path d="M0 0 C1.65 0 3.3 0 5 0 C7 2 7 2 7.265625 3.875 C7.26046875 4.57625 7.2553125 5.2775 7.25 6 C7.25515625 6.70125 7.2603125 7.4025 7.265625 8.125 C7 10 7 10 5 12 C3.35 12 1.7 12 0 12 C0 8.04 0 4.08 0 0 Z " fill="#DBDEE5" transform="translate(421,343)"/>
<path d="M0 0 C3.63 0 7.26 0 11 0 C11.33 1.98 11.66 3.96 12 6 C10.41913952 6.36504603 8.83516093 6.71660506 7.25 7.0625 C6.36828125 7.25972656 5.4865625 7.45695312 4.578125 7.66015625 C2.01320972 7.99825872 0.42908361 7.81158635 -2 7 C-1.525625 6.566875 -1.05125 6.13375 -0.5625 5.6875 C1.23686957 3.97690387 1.23686957 3.97690387 2 1 C1.34 0.67 0.68 0.34 0 0 Z " fill="#9A1A44" transform="translate(264,260)"/>
<path d="M0 0 C9.9 0.33 19.8 0.66 30 1 C30 1.33 30 1.66 30 2 C26.7 2.33 23.4 2.66 20 3 C20 3.33 20 3.66 20 4 C18.22882813 3.96519531 18.22882813 3.96519531 16.421875 3.9296875 C14.86458967 3.91092503 13.30729748 3.89272534 11.75 3.875 C10.58404297 3.84986328 10.58404297 3.84986328 9.39453125 3.82421875 C3.91693064 3.74031699 3.91693064 3.74031699 -1 6 C-0.67 4.02 -0.34 2.04 0 0 Z " fill="#C65633" transform="translate(228,289)"/>
<path d="M0 0 C0.33 0 0.66 0 1 0 C1 2.31 1 4.62 1 7 C1.66 7 2.32 7 3 7 C3.02696009 9.7708983 3.04681952 12.5415345 3.0625 15.3125 C3.07087891 16.09818359 3.07925781 16.88386719 3.08789062 17.69335938 C3.09111328 18.45068359 3.09433594 19.20800781 3.09765625 19.98828125 C3.10289307 20.68477783 3.10812988 21.38127441 3.11352539 22.09887695 C3 24 3 24 2 27 C1.34 27 0.68 27 0 27 C0 18.09 0 9.18 0 0 Z " fill="#BE3837" transform="translate(258,230)"/>
<path d="M0 0 C0.886875 0.12375 1.77375 0.2475 2.6875 0.375 C0.32796906 2.73453094 -1.09145617 2.86641413 -4.3125 3.375 C-5.80334832 7.84754497 -5.80334832 11.90245503 -4.3125 16.375 C-1.0125 16.705 2.2875 17.035 5.6875 17.375 C3.6875 19.375 3.6875 19.375 0.375 19.8125 C-3.3125 19.375 -3.3125 19.375 -6.25 17.375 C-8.40418389 14.24164161 -9.05765946 12.19650094 -8.796875 8.37890625 C-7.63647261 3.57820926 -5.06100409 0.57294386 0 0 Z " fill="#F6A18C" transform="translate(209.3125,146.625)"/>
<path d="M0 0 C0.33 0 0.66 0 1 0 C1 3.63 1 7.26 1 11 C-2.79392709 11.35292345 -4.5073063 11.34373979 -7.6875 9.125 C-8.450625 8.42375 -9.21375 7.7225 -10 7 C-10.99 6.34 -11.98 5.68 -13 5 C-6.565 4.505 -6.565 4.505 0 4 C-0.33 3.01 -0.66 2.02 -1 1 C-0.67 0.67 -0.34 0.34 0 0 Z " fill="#CC2142" transform="translate(248,213)"/>
<path d="M0 0 C3.33537489 1.11179163 4.63707344 2.47411298 7 5 C7.99 4.67 8.98 4.34 10 4 C13.13671875 5.21484375 13.13671875 5.21484375 16.6875 6.9375 C17.86699219 7.50339844 19.04648438 8.06929687 20.26171875 8.65234375 C21.16535156 9.09707031 22.06898438 9.54179687 23 10 C22.67 10.66 22.34 11.32 22 12 C21.29875 11.71125 20.5975 11.4225 19.875 11.125 C16.94547497 9.97866412 13.99078347 8.97374346 11 8 C10.67 8.99 10.34 9.98 10 11 C9.67 10.01 9.34 9.02 9 8 C8.05125 7.690625 7.1025 7.38125 6.125 7.0625 C2.71440927 5.90289915 1.73481463 5.0841149 0 2 C0 1.34 0 0.68 0 0 Z " fill="#E03D38" transform="translate(190,174)"/>
<path d="M0 0 C3.53571429 0.53571429 3.53571429 0.53571429 5 2 C5.1875 4.9375 5.1875 4.9375 5 8 C4.34 8.66 3.68 9.32 3 10 C-0.53571429 9.46428571 -0.53571429 9.46428571 -2 8 C-2.1875 5.0625 -2.1875 5.0625 -2 2 C-1.34 1.34 -0.68 0.68 0 0 Z " fill="#FDF2F6" transform="translate(274,392)"/>
<path d="M0 0 C3.63 0 7.26 0 11 0 C11 0.66 11 1.32 11 2 C9.68 2 8.36 2 7 2 C7 5.96 7 9.92 7 14 C6.01 14 5.02 14 4 14 C4 10.04 4 6.08 4 2 C2.68 2 1.36 2 0 2 C0 1.34 0 0.68 0 0 Z " fill="#E10C59" transform="translate(363,390)"/>
<path d="M0 0 C0 4.29 0 8.58 0 13 C-2.97 13 -5.94 13 -9 13 C-9 12.67 -9 12.34 -9 12 C-6.36 12 -3.72 12 -1 12 C-1 9.36 -1 6.72 -1 4 C-4.3 4.33 -7.6 4.66 -11 5 C-8.05790162 -0.88419676 -6.23816446 -0.11552156 0 0 Z " fill="#BA0E4A" transform="translate(249,245)"/>
<path d="M0 0 C3.63 0.33 7.26 0.66 11 1 C11 2.98 11 4.96 11 7 C7.75 7.3125 7.75 7.3125 4 7 C1.5625 4.625 1.5625 4.625 0 2 C0 1.34 0 0.68 0 0 Z " fill="#D10150" transform="translate(223,249)"/>
<path d="M0 0 C0.99 0 1.98 0 3 0 C3 3.96 3 7.92 3 12 C4.98 12 6.96 12 9 12 C9 12.66 9 13.32 9 14 C6.03 14 3.06 14 0 14 C0 9.38 0 4.76 0 0 Z " fill="#E00453" transform="translate(254,390)"/>
<path d="M0 0 C1.86978516 0.23009766 1.86978516 0.23009766 3.77734375 0.46484375 C9.36346727 1.08552414 14.94866968 1.33586621 20.5625 1.5625 C21.57119141 1.60568359 22.57988281 1.64886719 23.61914062 1.69335938 C26.07932575 1.79829618 28.53959175 1.90045701 31 2 C31 2.33 31 2.66 31 3 C10.09167015 5.10966932 10.09167015 5.10966932 1 3 C0.67 2.01 0.34 1.02 0 0 Z " fill="#8F064D" transform="translate(227,295)"/>
<path d="M0 0 C0.66 0.33 1.32 0.66 2 1 C1.67 1.680625 1.34 2.36125 1 3.0625 C-0.93903047 8.75840201 -0.15166811 13.48635046 2 19 C-2.875 16.375 -2.875 16.375 -4 13 C-4.53935652 7.28282089 -3.52168246 4.51215565 0 0 Z " fill="#E45E64" transform="translate(189,182)"/>
<path d="M0 0 C0.33 1.32 0.66 2.64 1 4 C-7.42857143 6.28571429 -7.42857143 6.28571429 -12 6 C-9.56043956 1.24285714 -9.56043956 1.24285714 -7.125 0.1875 C-4.73674713 -0.02322819 -2.39624286 -0.0665623 0 0 Z " fill="#9B084C" transform="translate(275,276)"/>
<path d="M0 0 C3.69230769 0.69230769 3.69230769 0.69230769 5 2 C5.23529412 7.52941176 5.23529412 7.52941176 4 10 C2.0625 9.625 2.0625 9.625 0 9 C-1.36623674 6.26752652 -1.128426 4.01801098 -1 1 C-0.67 0.67 -0.34 0.34 0 0 Z " fill="#E98615" transform="translate(261,166)"/>
<path d="M0 0 C0.66 0 1.32 0 2 0 C2.38218767 1.65614657 2.71395102 3.32457024 3 5 C2.67 5.33 2.34 5.66 2 6 C2.66 6.66 3.32 7.32 4 8 C2.02 8 0.04 8 -2 8 C-2.33 8.99 -2.66 9.98 -3 11 C-3.99 11 -4.98 11 -6 11 C-5.7452486 9.68428397 -5.47065859 8.37239624 -5.1875 7.0625 C-5.03667969 6.33160156 -4.88585937 5.60070312 -4.73046875 4.84765625 C-4.48941406 4.23792969 -4.24835938 3.62820313 -4 3 C-3.01 2.67 -2.02 2.34 -1 2 C-0.67 1.34 -0.34 0.68 0 0 Z " fill="#E94E86" transform="translate(132,393)"/>
<path d="M0 0 C3.3 0.99 6.6 1.98 10 3 C8.68 5.31 7.36 7.62 6 10 C3.525 9.01 3.525 9.01 1 8 C1.99 7.67 2.98 7.34 4 7 C3.34 6.401875 2.68 5.80375 2 5.1875 C0 3 0 3 0 0 Z " fill="#DB2343" transform="translate(195,211)"/>
<path d="M0 0 C-0.37994168 2.75457718 -0.8073633 3.82020574 -2.875 5.75 C-5 7 -5 7 -8 7 C-7.74438677 4.6568787 -7.40729228 2.32156597 -7 0 C-4.3333581 -1.33332095 -2.83319697 -0.67102033 0 0 Z " fill="#DF781B" transform="translate(285,172)"/>
<path d="M0 0 C1.32 0.33 2.64 0.66 4 1 C4.75 4.25 4.75 4.25 5 8 C3.0625 10.4375 3.0625 10.4375 1 12 C0.01 10.68 -0.98 9.36 -2 8 C-1.01 8 -0.02 8 1 8 C0.67 7.67 0.34 7.34 0 7 C-0.04092937 4.66702567 -0.04241723 2.33294775 0 0 Z " fill="#D9303D" transform="translate(189,191)"/>
<path d="M0 0 C4.86171326 7.2925699 4.26160937 16.54129704 4 25 C3.67 25 3.34 25 3 25 C2.52047335 22.29172996 2.04136769 19.58338656 1.5625 16.875 C1.42779297 16.11445313 1.29308594 15.35390625 1.15429688 14.5703125 C0.88991122 13.07427661 0.62766133 11.57786151 0.36767578 10.08105469 C0.04257249 8.24096143 -0.30696751 6.40522205 -0.66015625 4.5703125 C-1 2 -1 2 0 0 Z " fill="#DCB486" transform="translate(310,167)"/>
<path d="M0 0 C2.475 0.495 2.475 0.495 5 1 C5 3.31 5 5.62 5 8 C3.35 8.33 1.7 8.66 0 9 C0 6.03 0 3.06 0 0 Z " fill="#FDF6F9" transform="translate(191,392)"/>
<path d="M0 0 C2.475 0.495 2.475 0.495 5 1 C5 2.65 5 4.3 5 6 C4.34 6 3.68 6 3 6 C2.67 8.64 2.34 11.28 2 14 C1.34 14 0.68 14 0 14 C0 9.38 0 4.76 0 0 Z " fill="#E00655" transform="translate(306,390)"/>
<path d="M0 0 C0.33 0.99 0.66 1.98 1 3 C-5.11980533 4.40454548 -10.71739294 5.23268915 -17 5 C-11.95732435 1.63821624 -5.92525921 0.88878888 0 0 Z " fill="#5B0B4B" transform="translate(274,280)"/>
<path d="M0 0 C-0.33 0.99 -0.66 1.98 -1 3 C-3.08272894 3.33708908 -5.16621037 3.66953116 -7.25 4 C-8.41015625 4.185625 -9.5703125 4.37125 -10.765625 4.5625 C-14 5 -14 5 -18 5 C-18 4.34 -18 3.68 -18 3 C-15.3754034 2.49779928 -12.75036631 1.99814643 -10.125 1.5 C-9.37863281 1.35691406 -8.63226563 1.21382813 -7.86328125 1.06640625 C-2.2265625 0 -2.2265625 0 0 0 Z " fill="#5B0B4B" transform="translate(275,266)"/>
<path d="M0 0 C0.33 0.66 0.66 1.32 1 2 C-0.87387477 2.3396019 -2.74916697 2.67138691 -4.625 3 C-5.66914063 3.185625 -6.71328125 3.37125 -7.7890625 3.5625 C-10.90574865 3.98715797 -13.85930812 4.07545206 -17 4 C-15 1 -15 1 -13.046875 0.48828125 C-11.90992188 0.40126953 -11.90992188 0.40126953 -10.75 0.3125 C-9.95207031 0.24804688 -9.15414063 0.18359375 -8.33203125 0.1171875 C-5.54994484 -0.02261584 -2.78480935 -0.07140537 0 0 Z " fill="#DD6125" transform="translate(274,274)"/>
<path d="M0 0 C1.32 0 2.64 0 4 0 C4 4.62 4 9.24 4 14 C3.34 14 2.68 14 2 14 C1.67 10.7 1.34 7.4 1 4 C0.01 4.495 0.01 4.495 -1 5 C-0.67 3.35 -0.34 1.7 0 0 Z " fill="#E00252" transform="translate(317,390)"/>
<path d="M0 0 C-0.33 5.61 -0.66 11.22 -1 17 C-1.66 17 -2.32 17 -3 17 C-3 11.72 -3 6.44 -3 1 C-1 0 -1 0 0 0 Z " fill="#EE5D27" transform="translate(262,220)"/>
<path d="M0 0 C2.1640625 0.0234375 2.1640625 0.0234375 4.625 0.375 C5.85089844 0.54128906 5.85089844 0.54128906 7.1015625 0.7109375 C7.72804687 0.80632812 8.35453125 0.90171875 9 1 C9 1.66 9 2.32 9 3 C8.06027344 3.30744141 8.06027344 3.30744141 7.1015625 3.62109375 C6.28429687 3.89050781 5.46703125 4.15992188 4.625 4.4375 C3.81289062 4.70433594 3.00078125 4.97117187 2.1640625 5.24609375 C-0.01031799 5.95179729 -0.01031799 5.95179729 -2 7 C-2.125 4.625 -2.125 4.625 -2 2 C-1.34 1.34 -0.68 0.68 0 0 Z " fill="#E89F99" transform="translate(229,274)"/>
<path d="M0 0 C0.928125 0.165 1.85625 0.33 2.8125 0.5 C3.4725 1.49 4.1325 2.48 4.8125 3.5 C3.53375 3.45875 2.255 3.4175 0.9375 3.375 C-1.20621492 3.25787127 -1.20621492 3.25787127 -3.1875 3.5 C-5.13966435 5.45216435 -6.03576645 7.03199953 -7.1875 9.5 C-8 7.8125 -8 7.8125 -8.1875 5.5 C-5.65974817 2.12966423 -4.21214767 0.66072905 0 0 Z " fill="#F7A47B" transform="translate(239.1875,127.5)"/>
<path d="M0 0 C2.31 0 4.62 0 7 0 C7.33 0.66 7.66 1.32 8 2 C5.03 3.32 2.06 4.64 -1 6 C-0.67 4.02 -0.34 2.04 0 0 Z " fill="#ECA19C" transform="translate(228,289)"/>
<path d="M0 0 C0.33 0 0.66 0 1 0 C1.12117187 0.60328125 1.24234375 1.2065625 1.3671875 1.828125 C1.53476563 2.62734375 1.70234375 3.4265625 1.875 4.25 C2.03742188 5.03890625 2.19984375 5.8278125 2.3671875 6.640625 C2.99150075 8.96831144 3.84838542 10.89031952 5 13 C0.125 10.25 0.125 10.25 -1 8 C-1.23076923 2.46153846 -1.23076923 2.46153846 0 0 Z " fill="#F49A91" transform="translate(193,167)"/>
<path d="M0 0 C0 0.33 0 0.66 0 1 C-2.01822917 1.42317708 -4.03645833 1.84635417 -6.0546875 2.26953125 C-8.37046549 2.92308838 -8.37046549 2.92308838 -10 6 C-10.38499891 7.65549531 -10.72793135 9.3222433 -11 11 C-11.66 10.67 -12.32 10.34 -13 10 C-13.375 7.8125 -13.375 7.8125 -13 5 C-8.81925384 0.41137617 -6.36610712 -0.63661071 0 0 Z " fill="#D96028" transform="translate(242,127)"/>
<path d="M0 0 C1.32 0.33 2.64 0.66 4 1 C3.67 2.65 3.34 4.3 3 6 C1.35 5.67 -0.3 5.34 -2 5 C-1.34 3.35 -0.68 1.7 0 0 Z " fill="#E67B1A" transform="translate(270,173)"/>
<path d="M0 0 C0 1.65 0 3.3 0 5 C-1.32 5.33 -2.64 5.66 -4 6 C-4.33 4.35 -4.66 2.7 -5 1 C-1.125 0 -1.125 0 0 0 Z " fill="#E10C59" transform="translate(229,398)"/>
<path d="M0 0 C-0.33 0.99 -0.66 1.98 -1 3 C-5.34263862 3.16702456 -8.20960634 3.12999997 -12 1 C-10.56274129 0.83126522 -9.12518162 0.66509263 -7.6875 0.5 C-6.88699219 0.4071875 -6.08648437 0.314375 -5.26171875 0.21875 C-3 0 -3 0 0 0 Z " fill="#88074D" transform="translate(275,295)"/>
<path d="M0 0 C2 1 2 1 2.9375 3.375 C3.98373709 5.95982105 4.92113535 7.2046169 7 9 C1.125 7.125 1.125 7.125 0 6 C-0.04080783 4.00041636 -0.04254356 1.99954746 0 0 Z " fill="#EC5F76" transform="translate(193,210)"/>
<path d="M0 0 C2.00720923 0.28674418 4.0085944 0.61866701 6 1 C3.53721199 3.46278801 1.29323018 3.99771255 -2 5 C-1.125 1.125 -1.125 1.125 0 0 Z " fill="#F1A196" transform="translate(229,260)"/>
<path d="M0 0 C4.05606165 0.46800711 7.46588679 0.87953208 11 3 C10.67 3.66 10.34 4.32 10 5 C5 3 5 3 0 1 C0 0.67 0 0.34 0 0 Z " fill="#D13937" transform="translate(202,181)"/>
<path d="M0 0 C0.33 0.66 0.66 1.32 1 2 C-3.455 2.495 -3.455 2.495 -8 3 C-8 2.34 -8 1.68 -8 1 C-5.29120665 -0.35439668 -2.99066732 -0.06501451 0 0 Z " fill="#9E4A2F" transform="translate(274,274)"/>
<path d="M0 0 C3.465 1.485 3.465 1.485 7 3 C7 3.66 7 4.32 7 5 C4.03 4.505 4.03 4.505 1 4 C0.67 2.68 0.34 1.36 0 0 Z " fill="#730B4D" transform="translate(227,265)"/>
<path d="M0 0 C2.31 0.33 4.62 0.66 7 1 C7.33 1.99 7.66 2.98 8 4 C5.69 3.67 3.38 3.34 1 3 C0.67 2.01 0.34 1.02 0 0 Z " fill="#7D0B4E" transform="translate(227,295)"/>
<path d="M0 0 C1.65 0.33 3.3 0.66 5 1 C5 1.99 5 2.98 5 4 C2.03 3.505 2.03 3.505 -1 3 C-0.67 2.01 -0.34 1.02 0 0 Z " fill="#D98117" transform="translate(280,171)"/>
</svg>
